<svg version="1.1" viewBox="0.0 0.0 947.2677165354331 341.8950131233596" fill="none" stroke="none" stroke-linecap="square" stroke-miterlimit="10" xmlns:xlink="http://www.w3.org/1999/xlink" xmlns="http://www.w3.org/2000/svg"><clipPath id="p.0"><path d="m0 0l947.2677 0l0 341.89502l-947.2677 0l0 -341.89502z" clip-rule="nonzero"/></clipPath><g clip-path="url(#p.0)"><path fill="#000000" fill-opacity="0.0" d="m0 0l947.2677 0l0 341.89502l-947.2677 0z" fill-rule="evenodd"/><path fill="#000000" fill-opacity="0.0" d="m143.74016 36.472443l761.60626 0" fill-rule="evenodd"/><path stroke="#4a86e8" stroke-width="8.0" stroke-linejoin="round" stroke-linecap="butt" d="m143.74016 36.472443l761.60626 0" fill-rule="evenodd"/><path fill="#000000" fill-opacity="0.0" d="m17.223097 14.832021l121.51181 0l0 437.00787l-121.51181 0z" fill-rule="evenodd"/><path fill="#4a86e8" d="m39.62935 41.752018l-2.9375 0l-1.171875 -3.03125l-5.328127 0l-1.109375 3.03125l-2.859375 0l5.203125 -13.359373l2.843752 0l5.359375 13.359373zm-4.96875 -5.28125l-1.84375 -4.953123l-1.7968769 4.953123l3.640627 0zm6.301071 -4.390625l2.390625 0l0 1.421875q0.46875 -0.734375 1.25 -1.1875q0.796875 -0.4531231 1.765625 -0.4531231q1.6875 0 2.859375 1.3281231q1.171875 1.3125 1.171875 3.671875q0 2.421875 -1.1875 3.765625q-1.1875 1.34375 -2.859375 1.34375q-0.8125 0 -1.46875 -0.3125q-0.640625 -0.328125 -1.359375 -1.09375l0 4.875l-2.5625 0l0 -13.359375zm2.53125 4.671875q0 1.625 0.640625 2.40625q0.65625 0.78125 1.578125 0.78125q0.90625 0 1.484375 -0.71875q0.59375 -0.71875 0.59375 -2.34375q0 -1.515625 -0.609375 -2.25q-0.609375 -0.75 -1.515625 -0.75q-0.9375 0 -1.5625 0.734375q-0.609375 0.71875 -0.609375 2.140625zm8.864731 -4.671875l2.390625 0l0 1.421875q0.46875 -0.734375 1.25 -1.1875q0.796875 -0.4531231 1.765625 -0.4531231q1.6875 0 2.859375 1.3281231q1.171875 1.3125 1.171875 3.671875q0 2.421875 -1.1875 3.765625q-1.1875 1.34375 -2.859375 1.34375q-0.8125 0 -1.46875 -0.3125q-0.640625 -0.328125 -1.359375 -1.09375l0 4.875l-2.5625 0l0 -13.359375zm2.53125 4.671875q0 1.625 0.640625 2.40625q0.65625 0.78125 1.578125 0.78125q0.90625 0 1.484375 -0.71875q0.59375 -0.71875 0.59375 -2.34375q0 -1.515625 -0.609375 -2.25q-0.609375 -0.75 -1.515625 -0.75q-0.9375 0 -1.5625 0.734375q-0.609375 0.71875 -0.609375 2.140625zm8.942856 5.0l0 -13.359373l2.5625 0l0 13.359373l-2.5625 0zm5.183304 -10.984373l0 -2.375l2.5625 0l0 2.375l-2.5625 0zm0 10.984373l0 -9.671875l2.5625 0l0 9.671875l-2.5625 0zm13.620804 -6.8125l-2.53125 0.453125q-0.125 -0.75 -0.578125 -1.125q-0.453125 -0.390625 -1.171875 -0.390625q-0.953125 0 -1.53125 0.65625q-0.5625 0.65625 -0.5625 2.203125q0 1.734375 0.578125 2.4375q0.578125 0.703125 1.546875 0.703125q0.734375 0 1.203125 -0.40625q0.46875 -0.421875 0.65625 -1.421875l2.515625 0.421875q-0.390625 1.734375 -1.515625 2.625q-1.109375 0.875 -2.96875 0.875q-2.125 0 -3.390625 -1.328125q-1.25 -1.34375 -1.25 -3.71875q0 -2.390625 1.265625 -3.71875q1.265625 -1.3437481 3.421875 -1.3437481q1.765625 0 2.796875 0.7656231q1.046875 0.75 1.515625 2.3125zm3.8444672 0.09375l-2.328125 -0.421875q0.40625 -1.40625 1.359375 -2.078125q0.953125 -0.6718731 2.84375 -0.6718731q1.703125 0 2.546875 0.4062481q0.84375 0.40625 1.171875 1.03125q0.34375 0.625 0.34375 2.28125l-0.015625 3.0q0 1.265625 0.109375 1.875q0.125 0.609375 0.46875 1.296875l-2.53125 0q-0.109375 -0.25 -0.25 -0.75q-0.0625 -0.234375 -0.09375 -0.3125q-0.65625 0.640625 -1.40625 0.96875q-0.734375 0.3125 -1.59375 0.3125q-1.484375 0 -2.34375 -0.8125q-0.859375 -0.8125 -0.859375 -2.046875q0 -0.828125 0.390625 -1.46875q0.390625 -0.640625 1.09375 -0.96875q0.703125 -0.34375 2.03125 -0.609375q1.796875 -0.328125 2.484375 -0.625l0 -0.25q0 -0.75 -0.359375 -1.0625q-0.359375 -0.3125 -1.375 -0.3125q-0.6875 0 -1.078125 0.28125q-0.375 0.265625 -0.609375 0.9375zm3.421875 2.078125q-0.484375 0.15625 -1.5625 0.390625q-1.0625 0.21875 -1.390625 0.4375q-0.5 0.359375 -0.5 0.90625q0 0.53125 0.40625 0.9375q0.40625 0.390625 1.015625 0.390625q0.703125 0 1.328125 -0.46875q0.46875 -0.34375 0.609375 -0.84375q0.09375 -0.328125 0.09375 -1.25l0 -0.5zm9.485092 -5.03125l0 2.03125l-1.75 0l0 3.90625q0 1.1875 0.046875 1.390625q0.046875 0.1875 0.21875 0.3125q0.1875 0.125 0.4375 0.125q0.359375 0 1.03125 -0.25l0.21875 2.0q-0.890625 0.375 -2.015625 0.375q-0.703125 0 -1.265625 -0.234375q-0.546875 -0.234375 -0.8125 -0.59375q-0.25 -0.375 -0.34375 -1.0q-0.09375 -0.453125 -0.09375 -1.8125l0 -4.21875l-1.171875 0l0 -2.03125l1.171875 0l0 -1.9218731l2.578125 -1.5l0 3.421873l1.75 0zm1.775177 -1.3124981l0 -2.375l2.5625 0l0 2.375l-2.5625 0zm0 10.984373l0 -9.671875l2.5625 0l0 9.671875l-2.5625 0zm4.589554 -4.96875q0 -1.28125 0.625 -2.46875q0.625 -1.203125 1.78125 -1.828125q1.15625 -0.6249981 2.578125 -0.6249981q2.1875 0 3.59375 1.4218731q1.40625 1.421875 1.40625 3.609375q0 2.1875 -1.421875 3.640625q-1.421875 1.4375 -3.5625 1.4375q-1.328125 0 -2.546875 -0.59375q-1.203125 -0.609375 -1.828125 -1.765625q-0.625 -1.171875 -0.625 -2.828125zm2.625 0.125q0 1.453125 0.671875 2.21875q0.6875 0.75 1.6875 0.75q1.0 0 1.671875 -0.75q0.6875 -0.765625 0.6875 -2.234375q0 -1.421875 -0.6875 -2.1875q-0.671875 -0.765625 -1.671875 -0.765625q-1.0 0 -1.6875 0.765625q-0.671875 0.765625 -0.671875 2.203125zm18.161606 4.84375l-2.5625 0l0 -4.9375q0 -1.5625 -0.171875 -2.015625q-0.15625 -0.46875 -0.53125 -0.71875q-0.359375 -0.265625 -0.875 -0.265625q-0.671875 0 -1.203125 0.375q-0.53125 0.359375 -0.734375 0.96875q-0.1875 0.59375 -0.1875 2.21875l0 4.375l-2.546875 0l0 -9.671875l2.375 0l0 1.421875q1.265625 -1.6406231 3.1875 -1.6406231q0.84375 0 1.546875 0.3124981q0.703125 0.296875 1.0625 0.78125q0.359375 0.46875 0.5 1.078125q0.140625 0.59375 0.140625 1.703125l0 6.015625z" fill-rule="nonzero"/><path fill="#1c4587" d="m39.62935 75.75202l-2.9375 0l-1.171875 -3.03125l-5.328127 0l-1.109375 3.03125l-2.859375 0l5.203125 -13.359379l2.843752 0l5.359375 13.359379zm-4.96875 -5.28125l-1.84375 -4.953125l-1.7968769 4.953125l3.640627 0zm14.816696 -1.53125l-2.53125 0.453125q-0.125 -0.75 -0.578125 -1.125q-0.453125 -0.390625 -1.171875 -0.390625q-0.953125 0 -1.53125 0.65625q-0.5625 0.65625 -0.5625 2.203125q0 1.734375 0.578125 2.4375q0.578125 0.703125 1.546875 0.703125q0.734375 0 1.203125 -0.40625q0.46875 -0.421875 0.65625 -1.421875l2.515625 0.421875q-0.390625 1.734375 -1.515625 2.625q-1.109375 0.875 -2.96875 0.875q-2.125 0 -3.390625 -1.328125q-1.25 -1.34375 -1.25 -3.71875q0 -2.390625 1.265625 -3.71875q1.265625 -1.34375 3.421875 -1.34375q1.765625 0 2.796875 0.765625q1.046875 0.75 1.515625 2.3125zm6.375717 -2.859375l0 2.03125l-1.75 0l0 3.90625q0 1.1875 0.046875 1.390625q0.046875 0.1875 0.21875 0.3125q0.1875 0.125 0.4375 0.125q0.359375 0 1.03125 -0.25l0.21875 2.0q-0.890625 0.375 -2.015625 0.375q-0.703125 0 -1.265625 -0.234375q-0.546875 -0.234375 -0.8125 -0.59375q-0.25 -0.375 -0.34375 -1.0q-0.09375 -0.453125 -0.09375 -1.8125l0 -4.21875l-1.171875 0l0 -2.03125l1.171875 0l0 -1.921875l2.578125 -1.5000038l0 3.4218788l1.75 0zm1.775177 -1.3125l0 -2.3750038l2.5625 0l0 2.3750038l-2.5625 0zm0 10.984375l0 -9.671875l2.5625 0l0 9.671875l-2.5625 0zm7.839554 0l-3.90625 -9.671875l2.6875 0l1.828125 4.9375l0.53125 1.640625q0.203125 -0.625 0.265625 -0.828125q0.125 -0.40625 0.265625 -0.8125l1.84375 -4.9375l2.625 0l-3.84375 9.671875l-2.296875 0zm7.719467 -10.984375l0 -2.3750038l2.5625 0l0 2.3750038l-2.5625 0zm0 10.984375l0 -9.671875l2.5625 0l0 9.671875l-2.5625 0zm9.620804 -9.671875l0 2.03125l-1.75 0l0 3.90625q0 1.1875 0.046875 1.390625q0.046875 0.1875 0.21875 0.3125q0.1875 0.125 0.4375 0.125q0.359375 0 1.03125 -0.25l0.21875 2.0q-0.890625 0.375 -2.015625 0.375q-0.703125 0 -1.265625 -0.234375q-0.546875 -0.234375 -0.8125 -0.59375q-0.25 -0.375 -0.34375 -1.0q-0.09375 -0.453125 -0.09375 -1.8125l0 -4.21875l-1.171875 0l0 -2.03125l1.171875 0l0 -1.921875l2.578125 -1.5000038l0 3.4218788l1.75 0zm0.556427 0l2.71875 0l2.328125 6.859375l2.25 -6.859375l2.65625 0l-3.421875 9.3125l-0.609375 1.6875q-0.328125 0.84375 -0.640625 1.28125q-0.3125 0.453125 -0.703125 0.71875q-0.390625 0.28125 -0.96875 0.4375q-0.578125 0.15625 -1.3125 0.15625q-0.734375 0 -1.453125 -0.15625l-0.21875 -2.0q0.59375 0.125 1.078125 0.125q0.890625 0 1.3125 -0.53125q0.4375 -0.515625 0.671875 -1.328125l-3.6875 -9.703125z" fill-rule="nonzero"/><path fill="#351c75" d="m29.473097 109.75202l-3.1875 -13.359375l2.765625 0l2.015625 9.171875l2.437502 -9.171875l3.203125 0l2.34375 9.328125l2.046875 -9.328125l2.71875 0l-3.25 13.359375l-2.859375 0l-2.65625 -9.984375l-2.65625 9.984375l-2.921877 0zm15.538347 -10.984375l0 -2.375l2.5625 0l0 2.375l-2.5625 0zm0 10.984375l0 -9.671875l2.5625 0l0 9.671875l-2.5625 0zm13.980179 0l-2.5625 0l0 -4.9375q0 -1.5625 -0.171875 -2.015625q-0.15625 -0.46875 -0.53125 -0.71875q-0.359375 -0.265625 -0.875 -0.265625q-0.671875 0 -1.203125 0.375q-0.53125 0.359375 -0.734375 0.96875q-0.1875 0.59375 -0.1875 2.21875l0 4.375l-2.546875 0l0 -9.671875l2.375 0l0 1.421875q1.265625 -1.640625 3.1875 -1.640625q0.84375 0 1.546875 0.3125q0.703125 0.296875 1.0625 0.78125q0.359375 0.46875 0.5 1.078125q0.140625 0.59375 0.140625 1.703125l0 6.015625zm11.474106 0l-2.390625 0l0 -1.421875q-0.59375 0.828125 -1.40625 1.234375q-0.796875 0.40625 -1.609375 0.40625q-1.671875 0 -2.859375 -1.34375q-1.1875 -1.34375 -1.1875 -3.75q0 -2.453125 1.15625 -3.734375q1.15625 -1.28125 2.921875 -1.28125q1.625 0 2.8125 1.34375l0 -4.8125l2.5625 0l0 13.359375zm-6.84375 -5.046875q0 1.546875 0.4375 2.234375q0.609375 1.015625 1.71875 1.015625q0.890625 0 1.5 -0.75q0.625 -0.765625 0.625 -2.25q0 -1.671875 -0.609375 -2.40625q-0.59375 -0.734375 -1.53125 -0.734375q-0.90625 0 -1.53125 0.734375q-0.609375 0.71875 -0.609375 2.15625zm8.770981 0.078125q0 -1.28125 0.625 -2.46875q0.625 -1.203125 1.78125 -1.828125q1.15625 -0.625 2.578125 -0.625q2.1875 0 3.59375 1.421875q1.40625 1.421875 1.40625 3.609375q0 2.1875 -1.421875 3.640625q-1.421875 1.4375 -3.5625 1.4375q-1.328125 0 -2.546875 -0.59375q-1.203125 -0.609375 -1.828125 -1.765625q-0.625 -1.171875 -0.625 -2.828125zm2.625 0.125q0 1.453125 0.671875 2.21875q0.6875 0.75 1.6875 0.75q1.0 0 1.671875 -0.75q0.6875 -0.765625 0.6875 -2.234375q0 -1.421875 -0.6875 -2.1875q-0.671875 -0.765625 -1.671875 -0.765625q-1.0 0 -1.6875 0.765625q-0.671875 0.765625 -0.671875 2.203125zm11.161606 4.84375l-3.0625 -9.671875l2.484375 0l1.8125 6.34375l1.671875 -6.34375l2.46875 0l1.609375 6.34375l1.859375 -6.34375l2.515625 0l-3.109375 9.671875l-2.453125 0l-1.671875 -6.21875l-1.640625 6.21875l-2.484375 0z" fill-rule="nonzero"/><path fill="#741b47" d="m27.598097 143.75201l0 -13.359375l9.156252 0l0 2.265625l-6.453127 0l0 3.15625l5.562502 0l0 2.265625l-5.562502 0l0 5.671875l-2.703125 0zm13.817858 0l-2.5625 0l0 -9.671875l2.375 0l0 1.375q0.609375 -0.984375 1.09375 -1.28125q0.484375 -0.3125 1.109375 -0.3125q0.875 0 1.6875 0.484375l-0.796875 2.234375q-0.640625 -0.421875 -1.203125 -0.421875q-0.53125 0 -0.90625 0.296875q-0.375 0.296875 -0.59375 1.078125q-0.203125 0.765625 -0.203125 3.234375l0 2.984375zm6.713394 -6.71875l-2.328125 -0.421875q0.40625 -1.40625 1.359375 -2.078125q0.953125 -0.671875 2.84375 -0.671875q1.703125 0 2.546875 0.40625q0.84375 0.40625 1.171875 1.03125q0.34375 0.625 0.34375 2.28125l-0.015625 3.0q0 1.265625 0.109375 1.875q0.125 0.609375 0.46875 1.296875l-2.53125 0q-0.109375 -0.25 -0.25 -0.75q-0.0625 -0.234375 -0.09375 -0.3125q-0.65625 0.640625 -1.40625 0.96875q-0.734375 0.3125 -1.59375 0.3125q-1.484375 0 -2.34375 -0.8125q-0.859375 -0.8125 -0.859375 -2.046875q0 -0.828125 0.390625 -1.46875q0.390625 -0.640625 1.09375 -0.96875q0.703125 -0.34375 2.03125 -0.609375q1.796875 -0.328125 2.484375 -0.625l0 -0.25q0 -0.75 -0.359375 -1.0625q-0.359375 -0.3125 -1.375 -0.3125q-0.6875 0 -1.078125 0.28125q-0.375 0.265625 -0.609375 0.9375zm3.421875 2.078125q-0.484375 0.15625 -1.5625 0.390625q-1.0625 0.21875 -1.390625 0.4375q-0.5 0.359375 -0.5 0.90625q0 0.53125 0.40625 0.9375q0.40625 0.390625 1.015625 0.390625q0.703125 0 1.328125 -0.46875q0.46875 -0.34375 0.609375 -0.84375q0.09375 -0.328125 0.09375 -1.25l0 -0.5zm4.813217 5.28125l2.921875 0.359375q0.0625 0.5 0.328125 0.6875q0.375 0.28125 1.15625 0.28125q1.0 0 1.5 -0.296875q0.328125 -0.203125 0.515625 -0.65625q0.109375 -0.3125 0.109375 -1.171875l0 -1.40625q-1.140625 1.5625 -2.890625 1.5625q-1.953125 0 -3.09375 -1.65625q-0.890625 -1.296875 -0.890625 -3.234375q0 -2.4375 1.171875 -3.71875q1.171875 -1.28125 2.90625 -1.28125q1.796875 0 2.96875 1.578125l0 -1.359375l2.390625 0l0 8.671875q0 1.71875 -0.28125 2.5625q-0.28125 0.84375 -0.796875 1.328125q-0.5 0.484375 -1.359375 0.75q-0.84375 0.28125 -2.15625 0.28125q-2.453125 0 -3.484375 -0.84375q-1.03125 -0.84375 -1.03125 -2.125q0 -0.140625 0.015625 -0.3125zm2.28125 -5.671875q0 1.53125 0.59375 2.25q0.59375 0.71875 1.46875 0.71875q0.9375 0 1.578125 -0.734375q0.65625 -0.734375 0.65625 -2.171875q0 -1.515625 -0.625 -2.234375q-0.609375 -0.734375 -1.5625 -0.734375q-0.921875 0 -1.515625 0.71875q-0.59375 0.71875 -0.59375 2.1875zm9.145981 -4.640625l2.359375 0l0 1.3125q1.265625 -1.53125 3.015625 -1.53125q0.9375 0 1.609375 0.390625q0.6875 0.375 1.125 1.140625q0.640625 -0.765625 1.375 -1.140625q0.75 -0.390625 1.578125 -0.390625q1.0625 0 1.796875 0.4375q0.75 0.421875 1.109375 1.265625q0.265625 0.625 0.265625 2.0l0 6.1875l-2.5625 0l0 -5.53125q0 -1.4375 -0.265625 -1.859375q-0.34375 -0.546875 -1.09375 -0.546875q-0.53125 0 -1.015625 0.328125q-0.46875 0.328125 -0.671875 0.96875q-0.203125 0.625 -0.203125 2.0l0 4.640625l-2.5625 0l0 -5.296875q0 -1.421875 -0.140625 -1.828125q-0.140625 -0.40625 -0.421875 -0.609375q-0.28125 -0.203125 -0.78125 -0.203125q-0.59375 0 -1.0625 0.328125q-0.46875 0.3125 -0.6875 0.921875q-0.203125 0.59375 -0.203125 1.984375l0 4.703125l-2.5625 0l0 -9.671875zm22.38527 6.59375l2.546875 0.421875q-0.484375 1.40625 -1.546875 2.140625q-1.0625 0.734375 -2.65625 0.734375q-2.515625 0 -3.734375 -1.65625q-0.953125 -1.3125 -0.953125 -3.328125q0 -2.40625 1.25 -3.765625q1.265625 -1.359375 3.1875 -1.359375q2.15625 0 3.40625 1.421875q1.25 1.421875 1.1875 4.375l-6.40625 0q0.03125 1.140625 0.609375 1.78125q0.59375 0.625 1.484375 0.625q0.59375 0 1.0 -0.328125q0.421875 -0.328125 0.625 -1.0625zm0.15625 -2.59375q-0.03125 -1.109375 -0.578125 -1.6875q-0.546875 -0.578125 -1.328125 -0.578125q-0.84375 0 -1.390625 0.609375q-0.546875 0.609375 -0.53125 1.65625l3.828125 0zm13.422592 5.671875l-2.5625 0l0 -4.9375q0 -1.5625 -0.171875 -2.015625q-0.15625 -0.46875 -0.53125 -0.71875q-0.359375 -0.265625 -0.875 -0.265625q-0.671875 0 -1.203125 0.375q-0.53125 0.359375 -0.734375 0.96875q-0.1875 0.59375 -0.1875 2.21875l0 4.375l-2.546875 0l0 -9.671875l2.375 0l0 1.421875q1.265625 -1.640625 3.1875 -1.640625q0.84375 0 1.546875 0.3125q0.703125 0.296875 1.0625 0.78125q0.359375 0.46875 0.5 1.078125q0.140625 0.59375 0.140625 1.703125l0 6.015625zm7.036606 -9.671875l0 2.03125l-1.75 0l0 3.90625q0 1.1875 0.046875 1.390625q0.046875 0.1875 0.21875 0.3125q0.1875 0.125 0.4375 0.125q0.359375 0 1.03125 -0.25l0.21875 2.0q-0.890625 0.375 -2.015625 0.375q-0.703125 0 -1.265625 -0.234375q-0.546875 -0.234375 -0.8125 -0.59375q-0.25 -0.375 -0.34375 -1.0q-0.09375 -0.453125 -0.09375 -1.8125l0 -4.21875l-1.171875 0l0 -2.03125l1.171875 0l0 -1.921875l2.578125 -1.5l0 3.421875l1.75 0z" fill-rule="nonzero"/><path fill="#990000" d="m27.504347 177.75201l0 -13.359375l2.6875 0l0 13.359375l-2.6875 0zm14.042681 0l-2.5625 0l0 -4.9375q0 -1.5625 -0.171875 -2.015625q-0.15625 -0.46875 -0.53125 -0.71875q-0.359375 -0.265625 -0.875 -0.265625q-0.671875 0 -1.203125 0.375q-0.53125 0.359375 -0.734375 0.96875q-0.1875 0.59375 -0.1875 2.21875l0 4.375l-2.546875 0l0 -9.671875l2.375 0l0 1.421875q1.265625 -1.640625 3.1875 -1.640625q0.84375 0 1.546875 0.3125q0.703125 0.296875 1.0625 0.78125q0.359375 0.46875 0.5 1.078125q0.140625 0.59375 0.140625 1.703125l0 6.015625zm2.5209808 -9.671875l2.390625 0l0 1.421875q0.46875 -0.734375 1.25 -1.1875q0.796875 -0.453125 1.765625 -0.453125q1.6875 0 2.859375 1.328125q1.171875 1.3125 1.171875 3.671875q0 2.421875 -1.1875 3.765625q-1.1875 1.34375 -2.859375 1.34375q-0.8125 0 -1.46875 -0.3125q-0.640625 -0.328125 -1.359375 -1.09375l0 4.875l-2.5625 0l0 -13.359375zm2.53125 4.671875q0 1.625 0.640625 2.40625q0.65625 0.78125 1.578125 0.78125q0.90625 0 1.484375 -0.71875q0.59375 -0.71875 0.59375 -2.34375q0 -1.515625 -0.609375 -2.25q-0.609375 -0.75 -1.515625 -0.75q-0.9375 0 -1.5625 0.734375q-0.609375 0.71875 -0.609375 2.140625zm15.302231 5.0l0 -1.453125q-0.53125 0.78125 -1.390625 1.234375q-0.859375 0.4375 -1.8125 0.4375q-0.96875 0 -1.75 -0.421875q-0.765625 -0.4375 -1.125 -1.203125q-0.34375 -0.78125 -0.34375 -2.140625l0 -6.125l2.5625 0l0 4.4375q0 2.046875 0.140625 2.515625q0.140625 0.453125 0.515625 0.71875q0.375 0.265625 0.953125 0.265625q0.65625 0 1.171875 -0.359375q0.515625 -0.359375 0.703125 -0.890625q0.203125 -0.53125 0.203125 -2.609375l0 -4.078125l2.546875 0l0 9.671875l-2.375 0zm9.474106 -9.671875l0 2.03125l-1.75 0l0 3.90625q0 1.1875 0.046875 1.390625q0.046875 0.1875 0.21875 0.3125q0.1875 0.125 0.4375 0.125q0.359375 0 1.03125 -0.25l0.21875 2.0q-0.890625 0.375 -2.015625 0.375q-0.703125 0 -1.265625 -0.234375q-0.546875 -0.234375 -0.8125 -0.59375q-0.25 -0.375 -0.34375 -1.0q-0.09375 -0.453125 -0.09375 -1.8125l0 -4.21875l-1.171875 0l0 -2.03125l1.171875 0l0 -1.921875l2.578125 -1.5l0 3.421875l1.75 0z" fill-rule="nonzero"/><path fill="#b45f06" d="m27.613722 211.75201l0 -13.359375l2.625 0l5.453127 8.921875l0 -8.921875l2.515625 0l0 13.359375l-2.703125 0l-5.390627 -8.703125l0 8.703125l-2.5 0zm19.019823 -3.078125l2.546875 0.421875q-0.484375 1.40625 -1.546875 2.140625q-1.0625 0.734375 -2.65625 0.734375q-2.515625 0 -3.734375 -1.65625q-0.953125 -1.3125 -0.953125 -3.328125q0 -2.40625 1.25 -3.765625q1.265625 -1.359375 3.1875 -1.359375q2.15625 0 3.40625 1.421875q1.25 1.421875 1.1875 4.375l-6.40625 0q0.03125 1.140625 0.609375 1.78125q0.59375 0.625 1.484375 0.625q0.59375 0 1.0 -0.328125q0.421875 -0.328125 0.625 -1.0625zm0.15625 -2.59375q-0.03125 -1.109375 -0.578125 -1.6875q-0.546875 -0.578125 -1.328125 -0.578125q-0.84375 0 -1.390625 0.609375q-0.546875 0.609375 -0.53125 1.65625l3.828125 0zm9.063217 -4.0l0 2.03125l-1.75 0l0 3.90625q0 1.1875 0.046875 1.390625q0.046875 0.1875 0.21875 0.3125q0.1875 0.125 0.4375 0.125q0.359375 0 1.03125 -0.25l0.21875 2.0q-0.890625 0.375 -2.015625 0.375q-0.703125 0 -1.265625 -0.234375q-0.546875 -0.234375 -0.8125 -0.59375q-0.25 -0.375 -0.34375 -1.0q-0.09375 -0.453125 -0.09375 -1.8125l0 -4.21875l-1.171875 0l0 -2.03125l1.171875 0l0 -1.921875l2.578125 -1.5l0 3.421875l1.75 0zm3.572052 9.671875l-3.0625 -9.671875l2.484375 0l1.8125 6.34375l1.671875 -6.34375l2.46875 0l1.609375 6.34375l1.859375 -6.34375l2.515625 0l-3.109375 9.671875l-2.453125 0l-1.671875 -6.21875l-1.640625 6.21875l-2.484375 0zm12.120804 -4.96875q0 -1.28125 0.625 -2.46875q0.625 -1.203125 1.78125 -1.828125q1.15625 -0.625 2.578125 -0.625q2.1875 0 3.59375 1.421875q1.40625 1.421875 1.40625 3.609375q0 2.1875 -1.421875 3.640625q-1.421875 1.4375 -3.5625 1.4375q-1.328125 0 -2.546875 -0.59375q-1.203125 -0.609375 -1.828125 -1.765625q-0.625 -1.171875 -0.625 -2.828125zm2.625 0.125q0 1.453125 0.671875 2.21875q0.6875 0.75 1.6875 0.75q1.0 0 1.671875 -0.75q0.6875 -0.765625 0.6875 -2.234375q0 -1.421875 -0.6875 -2.1875q-0.671875 -0.765625 -1.671875 -0.765625q-1.0 0 -1.6875 0.765625q-0.671875 0.765625 -0.671875 2.203125zm11.817856 4.84375l-2.5625 0l0 -9.671875l2.375 0l0 1.375q0.609375 -0.984375 1.09375 -1.28125q0.484375 -0.3125 1.109375 -0.3125q0.875 0 1.6875 0.484375l-0.796875 2.234375q-0.640625 -0.421875 -1.203125 -0.421875q-0.53125 0 -0.90625 0.296875q-0.375 0.296875 -0.59375 1.078125q-0.203125 0.765625 -0.203125 3.234375l0 2.984375zm4.713394 0l0 -13.359375l2.5625 0l0 7.09375l3.0 -3.40625l3.140625 0l-3.296875 3.53125l3.53125 6.140625l-2.75 0l-2.4375 -4.34375l-1.1875 1.25l0 3.09375l-2.5625 0z" fill-rule="nonzero"/><path fill="#38761d" d="m27.504347 245.75201l0 -13.359375l2.6875 0l0 13.359375l-2.6875 0zm5.0426807 -9.671875l2.359375 0l0 1.3125q1.265625 -1.53125 3.015625 -1.53125q0.9375 0 1.609375 0.390625q0.6875 0.375 1.125 1.140625q0.640625 -0.765625 1.375 -1.140625q0.75 -0.390625 1.578125 -0.390625q1.0625 0 1.796875 0.4375q0.75 0.421875 1.109375 1.265625q0.265625 0.625 0.265625 2.0l0 6.1875l-2.5625 0l0 -5.53125q0 -1.4375 -0.265625 -1.859375q-0.34375 -0.546875 -1.09375 -0.546875q-0.53125 0 -1.015625 0.328125q-0.46875 0.328125 -0.671875 0.96875q-0.203125 0.625 -0.203125 2.0l0 4.640625l-2.5625 0l0 -5.296875q0 -1.421875 -0.140625 -1.828125q-0.140625 -0.40625 -0.421875 -0.609375q-0.28125 -0.203125 -0.78125 -0.203125q-0.59375 0 -1.0625 0.328125q-0.46875 0.3125 -0.6875 0.921875q-0.203125 0.59375 -0.203125 1.984375l0 4.703125l-2.5625 0l0 -9.671875zm18.69777 2.953125l-2.328125 -0.421875q0.40625 -1.40625 1.359375 -2.078125q0.953125 -0.671875 2.84375 -0.671875q1.703125 0 2.546875 0.40625q0.84375 0.40625 1.171875 1.03125q0.34375 0.625 0.34375 2.28125l-0.015625 3.0q0 1.265625 0.109375 1.875q0.125 0.609375 0.46875 1.296875l-2.53125 0q-0.109375 -0.25 -0.25 -0.75q-0.0625 -0.234375 -0.09375 -0.3125q-0.65625 0.640625 -1.40625 0.96875q-0.734375 0.3125 -1.59375 0.3125q-1.484375 0 -2.34375 -0.8125q-0.859375 -0.8125 -0.859375 -2.046875q0 -0.828125 0.390625 -1.46875q0.390625 -0.640625 1.09375 -0.96875q0.703125 -0.34375 2.03125 -0.609375q1.796875 -0.328125 2.484375 -0.625l0 -0.25q0 -0.75 -0.359375 -1.0625q-0.359375 -0.3125 -1.375 -0.3125q-0.6875 0 -1.078125 0.28125q-0.375 0.265625 -0.609375 0.9375zm3.421875 2.078125q-0.484375 0.15625 -1.5625 0.390625q-1.0625 0.21875 -1.390625 0.4375q-0.5 0.359375 -0.5 0.90625q0 0.53125 0.40625 0.9375q0.40625 0.390625 1.015625 0.390625q0.703125 0 1.328125 -0.46875q0.46875 -0.34375 0.609375 -0.84375q0.09375 -0.328125 0.09375 -1.25l0 -0.5zm4.813217 5.28125l2.921875 0.359375q0.0625 0.5 0.328125 0.6875q0.375 0.28125 1.15625 0.28125q1.0 0 1.5 -0.296875q0.328125 -0.203125 0.515625 -0.65625q0.109375 -0.3125 0.109375 -1.171875l0 -1.40625q-1.140625 1.5625 -2.890625 1.5625q-1.953125 0 -3.09375 -1.65625q-0.890625 -1.296875 -0.890625 -3.234375q0 -2.4375 1.171875 -3.71875q1.171875 -1.28125 2.90625 -1.28125q1.796875 0 2.96875 1.578125l0 -1.359375l2.390625 0l0 8.671875q0 1.71875 -0.28125 2.5625q-0.28125 0.84375 -0.796875 1.328125q-0.5 0.484375 -1.359375 0.75q-0.84375 0.28125 -2.15625 0.28125q-2.453125 0 -3.484375 -0.84375q-1.03125 -0.84375 -1.03125 -2.125q0 -0.140625 0.015625 -0.3125zm2.28125 -5.671875q0 1.53125 0.59375 2.25q0.59375 0.71875 1.46875 0.71875q0.9375 0 1.578125 -0.734375q0.65625 -0.734375 0.65625 -2.171875q0 -1.515625 -0.625 -2.234375q-0.609375 -0.734375 -1.5625 -0.734375q-0.921875 0 -1.515625 0.71875q-0.59375 0.71875 -0.59375 2.1875zm14.942856 1.953125l2.546875 0.421875q-0.484375 1.40625 -1.546875 2.140625q-1.0625 0.734375 -2.65625 0.734375q-2.515625 0 -3.734375 -1.65625q-0.953125 -1.3125 -0.953125 -3.328125q0 -2.40625 1.25 -3.765625q1.265625 -1.359375 3.1875 -1.359375q2.15625 0 3.40625 1.421875q1.25 1.421875 1.1875 4.375l-6.40625 0q0.03125 1.140625 0.609375 1.78125q0.59375 0.625 1.484375 0.625q0.59375 0 1.0 -0.328125q0.421875 -0.328125 0.625 -1.0625zm0.15625 -2.59375q-0.03125 -1.109375 -0.578125 -1.6875q-0.546875 -0.578125 -1.328125 -0.578125q-0.84375 0 -1.390625 0.609375q-0.546875 0.609375 -0.53125 1.65625l3.828125 0zm4.719467 5.671875l0 -13.25l2.6875 0l0 11.0l6.703125 0l0 2.25l-9.390625 0zm10.708481 -4.96875q0 -1.28125 0.625 -2.46875q0.625 -1.203125 1.78125 -1.828125q1.15625 -0.625 2.578125 -0.625q2.1875 0 3.59375 1.421875q1.40625 1.421875 1.40625 3.609375q0 2.1875 -1.421875 3.640625q-1.421875 1.4375 -3.5625 1.4375q-1.328125 0 -2.546875 -0.59375q-1.203125 -0.609375 -1.828125 -1.765625q-0.625 -1.171875 -0.625 -2.828125zm2.625 0.125q0 1.453125 0.671875 2.21875q0.6875 0.75 1.6875 0.75q1.0 0 1.671875 -0.75q0.6875 -0.765625 0.6875 -2.234375q0 -1.421875 -0.6875 -2.1875q-0.671875 -0.765625 -1.671875 -0.765625q-1.0 0 -1.6875 0.765625q-0.671875 0.765625 -0.671875 2.203125zm11.270981 -1.875l-2.328125 -0.421875q0.40625 -1.40625 1.359375 -2.078125q0.953125 -0.671875 2.84375 -0.671875q1.703125 0 2.546875 0.40625q0.84375 0.40625 1.171875 1.03125q0.34375 0.625 0.34375 2.28125l-0.015625 3.0q0 1.265625 0.109375 1.875q0.125 0.609375 0.46875 1.296875l-2.53125 0q-0.109375 -0.25 -0.25 -0.75q-0.0625 -0.234375 -0.09375 -0.3125q-0.65625 0.640625 -1.40625 0.96875q-0.734375 0.3125 -1.59375 0.3125q-1.484375 0 -2.34375 -0.8125q-0.859375 -0.8125 -0.859375 -2.046875q0 -0.828125 0.390625 -1.46875q0.390625 -0.640625 1.09375 -0.96875q0.703125 -0.34375 2.03125 -0.609375q1.796875 -0.328125 2.484375 -0.625l0 -0.25q0 -0.75 -0.359375 -1.0625q-0.359375 -0.3125 -1.375 -0.3125q-0.6875 0 -1.078125 0.28125q-0.375 0.265625 -0.609375 0.9375zm3.421875 2.078125q-0.484375 0.15625 -1.5625 0.390625q-1.0625 0.21875 -1.390625 0.4375q-0.5 0.359375 -0.5 0.90625q0 0.53125 0.40625 0.9375q0.40625 0.390625 1.015625 0.390625q0.703125 0 1.328125 -0.46875q0.46875 -0.34375 0.609375 -0.84375q0.09375 -0.328125 0.09375 -1.25l0 -0.5zm13.922592 4.640625l-2.390625 0l0 -1.421875q-0.59375 0.828125 -1.40625 1.234375q-0.796875 0.40625 -1.609375 0.40625q-1.671875 0 -2.859375 -1.34375q-1.1875 -1.34375 -1.1875 -3.75q0 -2.453125 1.15625 -3.734375q1.15625 -1.28125 2.921875 -1.28125q1.625 0 2.8125 1.34375l0 -4.8125l2.5625 0l0 13.359375zm-6.84375 -5.046875q0 1.546875 0.4375 2.234375q0.609375 1.015625 1.71875 1.015625q0.890625 0 1.5 -0.75q0.625 -0.765625 0.625 -2.25q0 -1.671875 -0.609375 -2.40625q-0.59375 -0.734375 -1.53125 -0.734375q-0.90625 0 -1.53125 0.734375q-0.609375 0.71875 -0.609375 2.15625z" fill-rule="nonzero"/><path fill="#134f5c" d="m27.566847 266.39264l4.937502 0q1.65625 0 2.53125 0.265625q1.1875 0.34375 2.015625 1.234375q0.84375 0.875 1.28125 2.15625q0.4375 1.28125 0.4375 3.15625q0 1.640625 -0.40625 2.84375q-0.5 1.453125 -1.4375 2.359375q-0.703125 0.671875 -1.890625 1.0625q-0.890625 0.28125 -2.390625 0.28125l-5.078127 0l0 -13.359375zm2.703125 2.265625l0 8.84375l2.015627 0q1.125 0 1.625 -0.125q0.65625 -0.171875 1.078125 -0.5625q0.4375 -0.390625 0.703125 -1.28125q0.28125 -0.90625 0.28125 -2.453125q0 -1.546875 -0.28125 -2.375q-0.265625 -0.828125 -0.765625 -1.28125q-0.484375 -0.46875 -1.234375 -0.640625q-0.5625 -0.125 -2.218752 -0.125l-1.203125 0zm12.676073 4.375l-2.328125 -0.421875q0.40625 -1.40625 1.359375 -2.078125q0.953125 -0.671875 2.84375 -0.671875q1.703125 0 2.546875 0.40625q0.84375 0.40625 1.171875 1.03125q0.34375 0.625 0.34375 2.28125l-0.015625 3.0q0 1.265625 0.109375 1.875q0.125 0.609375 0.46875 1.296875l-2.53125 0q-0.109375 -0.25 -0.25 -0.75q-0.0625 -0.234375 -0.09375 -0.3125q-0.65625 0.640625 -1.40625 0.96875q-0.734375 0.3125 -1.59375 0.3125q-1.484375 0 -2.34375 -0.8125q-0.859375 -0.8125 -0.859375 -2.046875q0 -0.828125 0.390625 -1.46875q0.390625 -0.640625 1.09375 -0.96875q0.703125 -0.34375 2.03125 -0.609375q1.796875 -0.328125 2.484375 -0.625l0 -0.25q0 -0.75 -0.359375 -1.0625q-0.359375 -0.3125 -1.375 -0.3125q-0.6875 0 -1.078125 0.28125q-0.375 0.265625 -0.609375 0.9375zm3.421875 2.078125q-0.484375 0.15625 -1.5625 0.390625q-1.0625 0.21875 -1.390625 0.4375q-0.5 0.359375 -0.5 0.90625q0 0.53125 0.40625 0.9375q0.40625 0.390625 1.015625 0.390625q0.703125 0 1.328125 -0.46875q0.46875 -0.34375 0.609375 -0.84375q0.09375 -0.328125 0.09375 -1.25l0 -0.5zm9.485092 -5.03125l0 2.03125l-1.75 0l0 3.90625q0 1.1875 0.046875 1.390625q0.046875 0.1875 0.21875 0.3125q0.1875 0.125 0.4375 0.125q0.359375 0 1.03125 -0.25l0.21875 2.0q-0.890625 0.375 -2.015625 0.375q-0.703125 0 -1.265625 -0.234375q-0.546875 -0.234375 -0.8125 -0.59375q-0.25 -0.375 -0.34375 -1.0q-0.09375 -0.453125 -0.09375 -1.8125l0 -4.21875l-1.171875 0l0 -2.03125l1.171875 0l0 -1.921875l2.578125 -1.5l0 3.421875l1.75 0zm3.681427 2.953125l-2.328125 -0.421875q0.40625 -1.40625 1.359375 -2.078125q0.953125 -0.671875 2.84375 -0.671875q1.703125 0 2.546875 0.40625q0.84375 0.40625 1.171875 1.03125q0.34375 0.625 0.34375 2.28125l-0.015625 3.0q0 1.265625 0.109375 1.875q0.125 0.609375 0.46875 1.296875l-2.53125 0q-0.109375 -0.25 -0.25 -0.75q-0.0625 -0.234375 -0.09375 -0.3125q-0.65625 0.640625 -1.40625 0.96875q-0.734375 0.3125 -1.59375 0.3125q-1.484375 0 -2.34375 -0.8125q-0.859375 -0.8125 -0.859375 -2.046875q0 -0.828125 0.390625 -1.46875q0.390625 -0.640625 1.09375 -0.96875q0.703125 -0.34375 2.03125 -0.609375q1.796875 -0.328125 2.484375 -0.625l0 -0.25q0 -0.75 -0.359375 -1.0625q-0.359375 -0.3125 -1.375 -0.3125q-0.6875 0 -1.078125 0.28125q-0.375 0.265625 -0.609375 0.9375zm3.421875 2.078125q-0.484375 0.15625 -1.5625 0.390625q-1.0625 0.21875 -1.390625 0.4375q-0.5 0.359375 -0.5 0.90625q0 0.53125 0.40625 0.9375q0.40625 0.390625 1.015625 0.390625q0.703125 0 1.328125 -0.46875q0.46875 -0.34375 0.609375 -0.84375q0.09375 -0.328125 0.09375 -1.25l0 -0.5zm4.938217 4.640625l0 -13.359375l2.5625 0l0 4.8125q1.171875 -1.34375 2.796875 -1.34375q1.765625 0 2.921875 1.28125q1.15625 1.28125 1.15625 3.671875q0 2.484375 -1.1875 3.828125q-1.171875 1.328125 -2.859375 1.328125q-0.828125 0 -1.640625 -0.40625q-0.796875 -0.421875 -1.375 -1.234375l0 1.421875l-2.375 0zm2.53125 -5.046875q0 1.5 0.484375 2.21875q0.65625 1.03125 1.765625 1.03125q0.84375 0 1.4375 -0.71875q0.59375 -0.734375 0.59375 -2.296875q0 -1.65625 -0.609375 -2.390625q-0.59375 -0.734375 -1.53125 -0.734375q-0.921875 0 -1.53125 0.71875q-0.609375 0.71875 -0.609375 2.171875zm10.880356 -1.671875l-2.328125 -0.421875q0.40625 -1.40625 1.359375 -2.078125q0.953125 -0.671875 2.84375 -0.671875q1.703125 0 2.546875 0.40625q0.84375 0.40625 1.171875 1.03125q0.34375 0.625 0.34375 2.28125l-0.015625 3.0q0 1.265625 0.109375 1.875q0.125 0.609375 0.46875 1.296875l-2.53125 0q-0.109375 -0.25 -0.25 -0.75q-0.0625 -0.234375 -0.09375 -0.3125q-0.65625 0.640625 -1.40625 0.96875q-0.734375 0.3125 -1.59375 0.3125q-1.484375 0 -2.34375 -0.8125q-0.859375 -0.8125 -0.859375 -2.046875q0 -0.828125 0.390625 -1.46875q0.390625 -0.640625 1.09375 -0.96875q0.703125 -0.34375 2.03125 -0.609375q1.796875 -0.328125 2.484375 -0.625l0 -0.25q0 -0.75 -0.359375 -1.0625q-0.359375 -0.3125 -1.375 -0.3125q-0.6875 0 -1.078125 0.28125q-0.375 0.265625 -0.609375 0.9375zm3.421875 2.078125q-0.484375 0.15625 -1.5625 0.390625q-1.0625 0.21875 -1.390625 0.4375q-0.5 0.359375 -0.5 0.90625q0 0.53125 0.40625 0.9375q0.40625 0.390625 1.015625 0.390625q0.703125 0 1.328125 -0.46875q0.46875 -0.34375 0.609375 -0.84375q0.09375 -0.328125 0.09375 -1.25l0 -0.5zm4.141342 1.875l2.5625 -0.390625q0.171875 0.75 0.671875 1.140625q0.5 0.390625 1.40625 0.390625q0.984375 0 1.484375 -0.375q0.34375 -0.25 0.34375 -0.671875q0 -0.296875 -0.1875 -0.484375q-0.1875 -0.1875 -0.859375 -0.34375q-3.09375 -0.6875 -3.921875 -1.25q-1.140625 -0.78125 -1.140625 -2.171875q0 -1.265625 0.984375 -2.109375q1.0 -0.859375 3.078125 -0.859375q1.984375 0 2.953125 0.65625q0.96875 0.640625 1.328125 1.90625l-2.40625 0.4375q-0.15625 -0.5625 -0.59375 -0.859375q-0.421875 -0.296875 -1.234375 -0.296875q-1.0 0 -1.4375 0.28125q-0.296875 0.203125 -0.296875 0.515625q0 0.265625 0.25 0.46875q0.34375 0.25 2.390625 0.71875q2.046875 0.453125 2.859375 1.140625q0.796875 0.671875 0.796875 1.890625q0 1.34375 -1.109375 2.296875q-1.109375 0.953125 -3.28125 0.953125q-1.984375 0 -3.140625 -0.796875q-1.140625 -0.8125 -1.5 -2.1875zm16.875717 -0.3125l2.546875 0.421875q-0.484375 1.40625 -1.546875 2.140625q-1.0625 0.734375 -2.65625 0.734375q-2.515625 0 -3.734375 -1.65625q-0.953125 -1.3125 -0.953125 -3.328125q0 -2.40625 1.25 -3.765625q1.265625 -1.359375 3.1875 -1.359375q2.15625 0 3.40625 1.421875q1.25 1.421875 1.1875 4.375l-6.40625 0q0.03125 1.140625 0.609375 1.78125q0.59375 0.625 1.484375 0.625q0.59375 0 1.0 -0.328125q0.421875 -0.328125 0.625 -1.0625zm0.15625 -2.59375q-0.03125 -1.109375 -0.578125 -1.6875q-0.546875 -0.578125 -1.328125 -0.578125q-0.84375 0 -1.390625 0.609375q-0.546875 0.609375 -0.53125 1.65625l3.828125 0z" fill-rule="nonzero"/><path fill="#000000" d="m30.988722 313.752l-4.78125 -13.359375l2.9375 0l3.375002 9.890625l3.265625 -9.890625l2.859375 0l-4.78125 13.359375l-2.875002 0zm8.684465 -10.984375l0 -2.375l2.5625 0l0 2.375l-2.5625 0zm0 10.984375l0 -9.671875l2.5625 0l0 9.671875l-2.5625 0zm10.777054 -3.078125l2.546875 0.421875q-0.484375 1.40625 -1.546875 2.140625q-1.0625 0.734375 -2.65625 0.734375q-2.515625 0 -3.734375 -1.65625q-0.953125 -1.3125 -0.953125 -3.328125q0 -2.40625 1.25 -3.765625q1.265625 -1.359375 3.1875 -1.359375q2.15625 0 3.40625 1.421875q1.25 1.421875 1.1875 4.375l-6.40625 0q0.03125 1.140625 0.609375 1.78125q0.59375 0.625 1.484375 0.625q0.59375 0 1.0 -0.328125q0.421875 -0.328125 0.625 -1.0625zm0.15625 -2.59375q-0.03125 -1.109375 -0.578125 -1.6875q-0.546875 -0.578125 -1.328125 -0.578125q-0.84375 0 -1.390625 0.609375q-0.546875 0.609375 -0.53125 1.65625l3.828125 0zm6.422592 5.671875l-3.0625 -9.671875l2.484375 0l1.8125 6.34375l1.671875 -6.34375l2.46875 0l1.609375 6.34375l1.859375 -6.34375l2.515625 0l-3.109375 9.671875l-2.453125 0l-1.671875 -6.21875l-1.640625 6.21875l-2.484375 0zm15.730179 0l0 -11.09375l-3.953125 0l0 -2.265625l10.609375 0l0 2.265625l-3.953125 0l0 11.09375l-2.703125 0zm9.803528 0l-2.5625 0l0 -9.671875l2.375 0l0 1.375q0.609375 -0.984375 1.09375 -1.28125q0.484375 -0.3125 1.109375 -0.3125q0.875 0 1.6875 0.484375l-0.796875 2.234375q-0.640625 -0.421875 -1.203125 -0.421875q-0.53125 0 -0.90625 0.296875q-0.375 0.296875 -0.59375 1.078125q-0.203125 0.765625 -0.203125 3.234375l0 2.984375zm10.400894 -3.078125l2.546875 0.421875q-0.484375 1.40625 -1.546875 2.140625q-1.0625 0.734375 -2.65625 0.734375q-2.515625 0 -3.734375 -1.65625q-0.953125 -1.3125 -0.953125 -3.328125q0 -2.40625 1.25 -3.765625q1.265625 -1.359375 3.1875 -1.359375q2.15625 0 3.40625 1.421875q1.25 1.421875 1.1875 4.375l-6.40625 0q0.03125 1.140625 0.609375 1.78125q0.59375 0.625 1.484375 0.625q0.59375 0 1.0 -0.328125q0.421875 -0.328125 0.625 -1.0625zm0.15625 -2.59375q-0.03125 -1.109375 -0.578125 -1.6875q-0.546875 -0.578125 -1.328125 -0.578125q-0.84375 0 -1.390625 0.609375q-0.546875 0.609375 -0.53125 1.65625l3.828125 0zm10.219467 2.59375l2.546875 0.421875q-0.484375 1.40625 -1.546875 2.140625q-1.0625 0.734375 -2.65625 0.734375q-2.515625 0 -3.734375 -1.65625q-0.953125 -1.3125 -0.953125 -3.328125q0 -2.40625 1.25 -3.765625q1.265625 -1.359375 3.1875 -1.359375q2.15625 0 3.40625 1.421875q1.25 1.421875 1.1875 4.375l-6.40625 0q0.03125 1.140625 0.609375 1.78125q0.59375 0.625 1.484375 0.625q0.59375 0 1.0 -0.328125q0.421875 -0.328125 0.625 -1.0625zm0.15625 -2.59375q-0.03125 -1.109375 -0.578125 -1.6875q-0.546875 -0.578125 -1.328125 -0.578125q-0.84375 0 -1.390625 0.609375q-0.546875 0.609375 -0.53125 1.65625l3.828125 0z" fill-rule="nonzero"/><path fill="#000000" d="m27.910597 347.752l0 -1.875l1.875 0l0 1.875l-1.875 0zm5.1833057 0l0 -1.875l1.875 0l0 1.875l-1.875 0zm5.183304 0l0 -1.875l1.875 0l0 1.875l-1.875 0z" fill-rule="nonzero"/><path fill="#000000" fill-opacity="0.0" d="m167.23097 69.950134l729.7953 0" fill-rule="evenodd"/><path stroke="#1c4587" stroke-width="8.0" stroke-linejoin="round" stroke-linecap="butt" d="m167.23097 69.950134l729.7953 0" fill-rule="evenodd"/><path fill="#000000" fill-opacity="0.0" d="m199.87665 103.43044l351.71655 0" fill-rule="evenodd"/><path stroke="#351c75" stroke-width="8.0" stroke-linejoin="round" stroke-linecap="butt" d="m199.87665 103.43044l351.71655 0" fill-rule="evenodd"/><path fill="#000000" fill-opacity="0.0" d="m203.39108 143.56693l352.37796 0" fill-rule="evenodd"/><path stroke="#741b47" stroke-width="8.0" stroke-linejoin="round" stroke-linecap="butt" d="m203.39108 143.56693l352.37796 0" fill-rule="evenodd"/><path fill="#000000" fill-opacity="0.0" d="m358.17322 171.2231l115.18112 0" fill-rule="evenodd"/><path stroke="#990000" stroke-width="8.0" stroke-linejoin="round" stroke-linecap="butt" d="m358.17322 171.2231l115.18112 0" fill-rule="evenodd"/><path fill="#000000" fill-opacity="0.0" d="m211.0315 207.19948l30.110245 0" fill-rule="evenodd"/><path stroke="#b45f06" stroke-width="8.0" stroke-linejoin="round" stroke-linecap="butt" d="m211.0315 207.19948l30.110245 0" fill-rule="evenodd"/><path fill="#000000" fill-opacity="0.0" d="m211.0315 273.14172l15.937012 0" fill-rule="evenodd"/><path stroke="#134f5c" stroke-width="8.0" stroke-linejoin="round" stroke-linecap="butt" d="m211.0315 273.14172l15.937012 0" fill-rule="evenodd"/><path fill="#000000" fill-opacity="0.0" d="m247.00787 233.33595l30.11023 0" fill-rule="evenodd"/><path stroke="#38761d" stroke-width="8.0" stroke-linejoin="round" stroke-linecap="butt" d="m247.00787 233.33595l30.11023 0" fill-rule="evenodd"/><path fill="#000000" fill-opacity="0.0" d="m247.00787 242.67717l111.49606 0" fill-rule="evenodd"/><path stroke="#38761d" stroke-width="8.0" stroke-linejoin="round" stroke-linecap="butt" d="m247.00787 242.67717l111.49606 0" fill-rule="evenodd"/><path fill="#000000" fill-opacity="0.0" d="m255.33858 253.35957l50.708664 0" fill-rule="evenodd"/><path stroke="#38761d" stroke-width="8.0" stroke-linejoin="round" stroke-linecap="butt" d="m255.33858 253.35957l50.708664 0" fill-rule="evenodd"/><path fill="#000000" fill-opacity="0.0" d="m397.73227 233.33595l27.338593 0" fill-rule="evenodd"/><path stroke="#38761d" stroke-width="8.0" stroke-linejoin="round" stroke-linecap="butt" d="m397.73227 233.33595l27.338593 0" fill-rule="evenodd"/><path fill="#000000" fill-opacity="0.0" d="m473.35434 233.33595l77.41733 0" fill-rule="evenodd"/><path stroke="#38761d" stroke-width="8.0" stroke-linejoin="round" stroke-linecap="butt" d="m473.35434 233.33595l77.41733 0" fill-rule="evenodd"/><path fill="#000000" fill-opacity="0.0" d="m485.00525 253.35957l27.338562 0" fill-rule="evenodd"/><path stroke="#38761d" stroke-width="8.0" stroke-linejoin="round" stroke-linecap="butt" d="m485.00525 253.35957l27.338562 0" fill-rule="evenodd"/><path fill="#000000" fill-opacity="0.0" d="m500.40158 242.67717l48.283478 0" fill-rule="evenodd"/><path stroke="#38761d" stroke-width="8.0" stroke-linejoin="round" stroke-linecap="butt" d="m500.40158 242.67717l48.283478 0" fill-rule="evenodd"/><path fill="#000000" fill-opacity="0.0" d="m583.23096 80.120735l213.07086 0" fill-rule="evenodd"/><path stroke="#1c4587" stroke-width="8.0" stroke-linejoin="round" stroke-linecap="butt" d="m583.23096 80.120735l213.07086 0" fill-rule="evenodd"/><path fill="#000000" fill-opacity="0.0" d="m807.1417 80.120735l63.24408 0" fill-rule="evenodd"/><path stroke="#1c4587" stroke-width="8.0" stroke-linejoin="round" stroke-linecap="butt" d="m807.1417 80.120735l63.24408 0" fill-rule="evenodd"/><path fill="#000000" fill-opacity="0.0" d="m582.3963 103.43044l214.74017 0" fill-rule="evenodd"/><path stroke="#351c75" stroke-width="8.0" stroke-linejoin="round" stroke-linecap="butt" d="m582.3963 103.43044l214.74017 0" fill-rule="evenodd"/><path fill="#000000" fill-opacity="0.0" d="m688.1076 114.43307l54.11023 0" fill-rule="evenodd"/><path stroke="#351c75" stroke-width="8.0" stroke-linejoin="round" stroke-linecap="butt" d="m688.1076 114.43307l54.11023 0" fill-rule="evenodd"/><path fill="#000000" fill-opacity="0.0" d="m807.1417 103.43044l63.24408 0" fill-rule="evenodd"/><path stroke="#351c75" stroke-width="8.0" stroke-linejoin="round" stroke-linecap="butt" d="m807.1417 103.43044l63.24408 0" fill-rule="evenodd"/><path fill="#000000" fill-opacity="0.0" d="m20.64567 52.829395l907.0236 0" fill-rule="evenodd"/><path stroke="#b7b7b7" stroke-width="2.0" stroke-linejoin="round" stroke-linecap="butt" stroke-dasharray="8.0,6.0" d="m20.64567 52.829395l907.0236 0" fill-rule="evenodd"/><path fill="#000000" fill-opacity="0.0" d="m14.4042 91.8294l907.0236 0" fill-rule="evenodd"/><path stroke="#b7b7b7" stroke-width="2.0" stroke-linejoin="round" stroke-linecap="butt" stroke-dasharray="8.0,6.0" d="m14.4042 91.8294l907.0236 0" fill-rule="evenodd"/><path fill="#000000" fill-opacity="0.0" d="m14.4042 124.03412l907.0236 0" fill-rule="evenodd"/><path stroke="#b7b7b7" stroke-width="2.0" stroke-linejoin="round" stroke-linecap="butt" stroke-dasharray="8.0,6.0" d="m14.4042 124.03412l907.0236 0" fill-rule="evenodd"/><path fill="#000000" fill-opacity="0.0" d="m20.64567 156.23885l907.0236 0" fill-rule="evenodd"/><path stroke="#b7b7b7" stroke-width="2.0" stroke-linejoin="round" stroke-linecap="butt" stroke-dasharray="8.0,6.0" d="m20.64567 156.23885l907.0236 0" fill-rule="evenodd"/><path fill="#000000" fill-opacity="0.0" d="m20.64567 188.4462l907.0236 0" fill-rule="evenodd"/><path stroke="#b7b7b7" stroke-width="2.0" stroke-linejoin="round" stroke-linecap="butt" stroke-dasharray="8.0,6.0" d="m20.64567 188.4462l907.0236 0" fill-rule="evenodd"/><path fill="#000000" fill-opacity="0.0" d="m20.64567 223.7874l907.0236 0" fill-rule="evenodd"/><path stroke="#b7b7b7" stroke-width="2.0" stroke-linejoin="round" stroke-linecap="butt" stroke-dasharray="8.0,6.0" d="m20.64567 223.7874l907.0236 0" fill-rule="evenodd"/><path fill="#000000" fill-opacity="0.0" d="m20.64567 261.7454l907.0236 0" fill-rule="evenodd"/><path stroke="#b7b7b7" stroke-width="2.0" stroke-linejoin="round" stroke-linecap="butt" stroke-dasharray="8.0,6.0" d="m20.64567 261.7454l907.0236 0" fill-rule="evenodd"/><path fill="#000000" fill-opacity="0.0" d="m17.223097 292.70078l907.0236 0" fill-rule="evenodd"/><path stroke="#b7b7b7" stroke-width="2.0" stroke-linejoin="round" stroke-linecap="butt" stroke-dasharray="8.0,6.0" d="m17.223097 292.70078l907.0236 0" fill-rule="evenodd"/><path fill="#000000" fill-opacity="0.0" d="m241.14174 273.14172l15.936996 0" fill-rule="evenodd"/><path stroke="#134f5c" stroke-width="8.0" stroke-linejoin="round" stroke-linecap="butt" d="m241.14174 273.14172l15.936996 0" fill-rule="evenodd"/><path fill="#ff9900" d="m897.0315 36.472443l0 0c0 -2.2961159 1.8613892 -4.157482 4.1574707 -4.157482l0 0c1.1026611 0 2.1600952 0.4380188 2.9398193 1.2176971c0.7796631 0.77967834 1.2176514 1.8371506 1.2176514 2.939785l0 0c0 2.296112 -1.8613281 4.1574783 -4.1574707 4.1574783l0 0c-2.2960815 0 -4.1574707 -1.8613663 -4.1574707 -4.1574783z" fill-rule="evenodd"/><path stroke="#783f04" stroke-width="3.0" stroke-linejoin="round" stroke-linecap="butt" d="m897.0315 36.472443l0 0c0 -2.2961159 1.8613892 -4.157482 4.1574707 -4.157482l0 0c1.1026611 0 2.1600952 0.4380188 2.9398193 1.2176971c0.7796631 0.77967834 1.2176514 1.8371506 1.2176514 2.939785l0 0c0 2.296112 -1.8613281 4.1574783 -4.1574707 4.1574783l0 0c-2.2960815 0 -4.1574707 -1.8613663 -4.1574707 -4.1574783z" fill-rule="evenodd"/><path fill="#ff9900" d="m141.55118 36.472443l0 0c0 -2.2961159 1.8613739 -4.157482 4.157486 -4.157482l0 0c1.1026306 0 2.1600952 0.4380188 2.9397736 1.2176971c0.77967834 0.77967834 1.2176971 1.8371506 1.2176971 2.939785l0 0c0 2.296112 -1.8613586 4.1574783 -4.1574707 4.1574783l0 0c-2.296112 0 -4.157486 -1.8613663 -4.157486 -4.1574783z" fill-rule="evenodd"/><path stroke="#783f04" stroke-width="3.0" stroke-linejoin="round" stroke-linecap="butt" d="m141.55118 36.472443l0 0c0 -2.2961159 1.8613739 -4.157482 4.157486 -4.157482l0 0c1.1026306 0 2.1600952 0.4380188 2.9397736 1.2176971c0.77967834 0.77967834 1.2176971 1.8371506 1.2176971 2.939785l0 0c0 2.296112 -1.8613586 4.1574783 -4.1574707 4.1574783l0 0c-2.296112 0 -4.157486 -1.8613663 -4.157486 -4.1574783z" fill-rule="evenodd"/><path fill="#ff9900" d="m295.25986 35.934383l0 0c0 -2.296112 1.8613586 -4.1574802 4.1574707 -4.1574802l0 0c1.1026306 0 2.1600952 0.4380169 2.9397888 1.217699c0.7796631 0.77967834 1.2176819 1.8371468 1.2176819 2.9397812l0 0c0 2.296112 -1.8613586 4.1574783 -4.1574707 4.1574783l0 0c-2.296112 0 -4.1574707 -1.8613663 -4.1574707 -4.1574783z" fill-rule="evenodd"/><path stroke="#783f04" stroke-width="3.0" stroke-linejoin="round" stroke-linecap="butt" d="m295.25986 35.934383l0 0c0 -2.296112 1.8613586 -4.1574802 4.1574707 -4.1574802l0 0c1.1026306 0 2.1600952 0.4380169 2.9397888 1.217699c0.7796631 0.77967834 1.2176819 1.8371468 1.2176819 2.9397812l0 0c0 2.296112 -1.8613586 4.1574783 -4.1574707 4.1574783l0 0c-2.296112 0 -4.1574707 -1.8613663 -4.1574707 -4.1574783z" fill-rule="evenodd"/><path fill="#ff9900" d="m453.1391 35.934383l0 0c0 -2.296112 1.8613892 -4.1574802 4.157501 -4.1574802l0 0c1.1026306 0 2.1600952 0.4380169 2.9397583 1.217699c0.7796936 0.77967834 1.2177124 1.8371468 1.2177124 2.9397812l0 0c0 2.296112 -1.8613586 4.1574783 -4.1574707 4.1574783l0 0c-2.296112 0 -4.157501 -1.8613663 -4.157501 -4.1574783z" fill-rule="evenodd"/><path stroke="#783f04" stroke-width="3.0" stroke-linejoin="round" stroke-linecap="butt" d="m453.1391 35.934383l0 0c0 -2.296112 1.8613892 -4.1574802 4.157501 -4.1574802l0 0c1.1026306 0 2.1600952 0.4380169 2.9397583 1.217699c0.7796936 0.77967834 1.2177124 1.8371468 1.2177124 2.9397812l0 0c0 2.296112 -1.8613586 4.1574783 -4.1574707 4.1574783l0 0c-2.296112 0 -4.157501 -1.8613663 -4.157501 -4.1574783z" fill-rule="evenodd"/><path fill="#ff9900" d="m162.95013 69.950134l0 0c0 -2.2961197 1.8613586 -4.157486 4.1574707 -4.157486l0 0c1.1026459 0 2.1601105 0.4380188 2.9397888 1.2176971c0.77967834 0.77967834 1.2176971 1.8371506 1.2176971 2.9397888l0 0c0 2.296112 -1.8613739 4.1574783 -4.157486 4.1574783l0 0c-2.296112 0 -4.1574707 -1.8613663 -4.1574707 -4.1574783z" fill-rule="evenodd"/><path stroke="#783f04" stroke-width="3.0" stroke-linejoin="round" stroke-linecap="butt" d="m162.95013 69.950134l0 0c0 -2.2961197 1.8613586 -4.157486 4.1574707 -4.157486l0 0c1.1026459 0 2.1601105 0.4380188 2.9397888 1.2176971c0.77967834 0.77967834 1.2176971 1.8371506 1.2176971 2.9397888l0 0c0 2.296112 -1.8613739 4.1574783 -4.157486 4.1574783l0 0c-2.296112 0 -4.1574707 -1.8613663 -4.1574707 -4.1574783z" fill-rule="evenodd"/><path fill="#ff9900" d="m892.0079 69.18635l0 0c0 -2.296112 1.8613892 -4.1574783 4.1574707 -4.1574783l0 0c1.1026611 0 2.1600952 0.4380188 2.9398193 1.2176971c0.7796631 0.77967834 1.2176514 1.8371506 1.2176514 2.9397812l0 0c0 2.2961197 -1.8613281 4.157486 -4.1574707 4.157486l0 0c-2.2960815 0 -4.1574707 -1.8613663 -4.1574707 -4.157486z" fill-rule="evenodd"/><path stroke="#783f04" stroke-width="3.0" stroke-linejoin="round" stroke-linecap="butt" d="m892.0079 69.18635l0 0c0 -2.296112 1.8613892 -4.1574783 4.1574707 -4.1574783l0 0c1.1026611 0 2.1600952 0.4380188 2.9398193 1.2176971c0.7796631 0.77967834 1.2176514 1.8371506 1.2176514 2.9397812l0 0c0 2.2961197 -1.8613281 4.157486 -4.1574707 4.157486l0 0c-2.2960815 0 -4.1574707 -1.8613663 -4.1574707 -4.157486z" fill-rule="evenodd"/><path fill="#ff9900" d="m199.87665 103.43044l0 0c0 -2.296112 1.8613586 -4.1574783 4.1574707 -4.1574783l0 0c1.1026306 0 2.1601105 0.4380188 2.9397888 1.2176971c0.77967834 0.77967834 1.2176971 1.8371506 1.2176971 2.9397812l0 0c0 2.2961197 -1.8613739 4.157486 -4.157486 4.157486l0 0c-2.296112 0 -4.1574707 -1.8613663 -4.1574707 -4.157486z" fill-rule="evenodd"/><path stroke="#783f04" stroke-width="3.0" stroke-linejoin="round" stroke-linecap="butt" d="m199.87665 103.43044l0 0c0 -2.296112 1.8613586 -4.1574783 4.1574707 -4.1574783l0 0c1.1026306 0 2.1601105 0.4380188 2.9397888 1.2176971c0.77967834 0.77967834 1.2176971 1.8371506 1.2176971 2.9397812l0 0c0 2.2961197 -1.8613739 4.157486 -4.157486 4.157486l0 0c-2.296112 0 -4.1574707 -1.8613663 -4.1574707 -4.157486z" fill-rule="evenodd"/><path fill="#ff9900" d="m577.1837 102.07743l0 0c0 -2.2961197 1.8613892 -4.157486 4.1574707 -4.157486l0 0c1.1026611 0 2.1600952 0.4380188 2.9398193 1.2176971c0.7796631 0.779686 1.2176514 1.8371506 1.2176514 2.9397888l0 0c0 2.296112 -1.8613281 4.1574783 -4.1574707 4.1574783l0 0c-2.2960815 0 -4.1574707 -1.8613663 -4.1574707 -4.1574783z" fill-rule="evenodd"/><path stroke="#783f04" stroke-width="3.0" stroke-linejoin="round" stroke-linecap="butt" d="m577.1837 102.07743l0 0c0 -2.2961197 1.8613892 -4.157486 4.1574707 -4.157486l0 0c1.1026611 0 2.1600952 0.4380188 2.9398193 1.2176971c0.7796631 0.779686 1.2176514 1.8371506 1.2176514 2.9397888l0 0c0 2.296112 -1.8613281 4.1574783 -4.1574707 4.1574783l0 0c-2.2960815 0 -4.1574707 -1.8613663 -4.1574707 -4.1574783z" fill-rule="evenodd"/><path fill="#ff9900" d="m787.9869 80.88976l0 0c0 -2.296112 1.8613892 -4.1574783 4.1574707 -4.1574783l0 0c1.1026611 0 2.1600952 0.4380188 2.9398193 1.2176971c0.7796631 0.77967834 1.2176514 1.8371506 1.2176514 2.9397812l0 0c0 2.296112 -1.8613281 4.1574783 -4.1574707 4.1574783l0 0c-2.2960815 0 -4.1574707 -1.8613663 -4.1574707 -4.1574783z" fill-rule="evenodd"/><path stroke="#783f04" stroke-width="3.0" stroke-linejoin="round" stroke-linecap="butt" d="m787.9869 80.88976l0 0c0 -2.296112 1.8613892 -4.1574783 4.1574707 -4.1574783l0 0c1.1026611 0 2.1600952 0.4380188 2.9398193 1.2176971c0.7796631 0.77967834 1.2176514 1.8371506 1.2176514 2.9397812l0 0c0 2.296112 -1.8613281 4.1574783 -4.1574707 4.1574783l0 0c-2.2960815 0 -4.1574707 -1.8613663 -4.1574707 -4.1574783z" fill-rule="evenodd"/><path fill="#ff9900" d="m577.1837 80.88976l0 0c0 -2.296112 1.8613892 -4.1574783 4.1574707 -4.1574783l0 0c1.1026611 0 2.1600952 0.4380188 2.9398193 1.2176971c0.7796631 0.77967834 1.2176514 1.8371506 1.2176514 2.9397812l0 0c0 2.296112 -1.8613281 4.1574783 -4.1574707 4.1574783l0 0c-2.2960815 0 -4.1574707 -1.8613663 -4.1574707 -4.1574783z" fill-rule="evenodd"/><path stroke="#783f04" stroke-width="3.0" stroke-linejoin="round" stroke-linecap="butt" d="m577.1837 80.88976l0 0c0 -2.296112 1.8613892 -4.1574783 4.1574707 -4.1574783l0 0c1.1026611 0 2.1600952 0.4380188 2.9398193 1.2176971c0.7796631 0.77967834 1.2176514 1.8371506 1.2176514 2.9397812l0 0c0 2.296112 -1.8613281 4.1574783 -4.1574707 4.1574783l0 0c-2.2960815 0 -4.1574707 -1.8613663 -4.1574707 -4.1574783z" fill-rule="evenodd"/><path fill="#ff9900" d="m803.0026 80.88976l0 0c0 -2.296112 1.8613892 -4.1574783 4.1574707 -4.1574783l0 0c1.1026611 0 2.1600952 0.4380188 2.9398193 1.2176971c0.7796631 0.77967834 1.2176514 1.8371506 1.2176514 2.9397812l0 0c0 2.296112 -1.8613281 4.1574783 -4.1574707 4.1574783l0 0c-2.2960815 0 -4.1574707 -1.8613663 -4.1574707 -4.1574783z" fill-rule="evenodd"/><path stroke="#783f04" stroke-width="3.0" stroke-linejoin="round" stroke-linecap="butt" d="m803.0026 80.88976l0 0c0 -2.296112 1.8613892 -4.1574783 4.1574707 -4.1574783l0 0c1.1026611 0 2.1600952 0.4380188 2.9398193 1.2176971c0.7796631 0.77967834 1.2176514 1.8371506 1.2176514 2.9397812l0 0c0 2.296112 -1.8613281 4.1574783 -4.1574707 4.1574783l0 0c-2.2960815 0 -4.1574707 -1.8613663 -4.1574707 -4.1574783z" fill-rule="evenodd"/><path fill="#ff9900" d="m865.4252 80.88976l0 0c0 -2.296112 1.8613892 -4.1574783 4.1575317 -4.1574783l0 0c1.1026001 0 2.1600952 0.4380188 2.9397583 1.2176971c0.7796631 0.77967834 1.2177124 1.8371506 1.2177124 2.9397812l0 0c0 2.296112 -1.8613892 4.1574783 -4.1574707 4.1574783l0 0c-2.2961426 0 -4.1575317 -1.8613663 -4.1575317 -4.1574783z" fill-rule="evenodd"/><path stroke="#783f04" stroke-width="3.0" stroke-linejoin="round" stroke-linecap="butt" d="m865.4252 80.88976l0 0c0 -2.296112 1.8613892 -4.1574783 4.1575317 -4.1574783l0 0c1.1026001 0 2.1600952 0.4380188 2.9397583 1.2176971c0.7796631 0.77967834 1.2177124 1.8371506 1.2177124 2.9397812l0 0c0 2.296112 -1.8613892 4.1574783 -4.1574707 4.1574783l0 0c-2.2961426 0 -4.1575317 -1.8613663 -4.1575317 -4.1574783z" fill-rule="evenodd"/><path fill="#ff9900" d="m547.45404 104.53412l0 0c0 -2.296112 1.8613892 -4.1574783 4.1575317 -4.1574783l0 0c1.1026001 0 2.1600952 0.4380188 2.9397583 1.2176971c0.7796631 0.77967834 1.2177124 1.8371506 1.2177124 2.9397812l0 0c0 2.296112 -1.8613892 4.157486 -4.1574707 4.157486l0 0c-2.2961426 0 -4.1575317 -1.8613739 -4.1575317 -4.157486z" fill-rule="evenodd"/><path stroke="#783f04" stroke-width="3.0" stroke-linejoin="round" stroke-linecap="butt" d="m547.45404 104.53412l0 0c0 -2.296112 1.8613892 -4.1574783 4.1575317 -4.1574783l0 0c1.1026001 0 2.1600952 0.4380188 2.9397583 1.2176971c0.7796631 0.77967834 1.2177124 1.8371506 1.2177124 2.9397812l0 0c0 2.296112 -1.8613892 4.157486 -4.1574707 4.157486l0 0c-2.2961426 0 -4.1575317 -1.8613739 -4.1575317 -4.157486z" fill-rule="evenodd"/><path fill="#ff9900" d="m792.5801 104.54068l0 0c0 -2.296112 1.8613281 -4.1574783 4.1574707 -4.1574783l0 0c1.1026001 0 2.1600952 0.4380188 2.9397583 1.2176971c0.7796631 0.77967834 1.2177124 1.8371506 1.2177124 2.9397812l0 0c0 2.296112 -1.8613892 4.157486 -4.1574707 4.157486l0 0c-2.2961426 0 -4.1574707 -1.8613739 -4.1574707 -4.157486z" fill-rule="evenodd"/><path stroke="#783f04" stroke-width="3.0" stroke-linejoin="round" stroke-linecap="butt" d="m792.5801 104.54068l0 0c0 -2.296112 1.8613281 -4.1574783 4.1574707 -4.1574783l0 0c1.1026001 0 2.1600952 0.4380188 2.9397583 1.2176971c0.7796631 0.77967834 1.2177124 1.8371506 1.2177124 2.9397812l0 0c0 2.296112 -1.8613892 4.157486 -4.1574707 4.157486l0 0c-2.2961426 0 -4.1574707 -1.8613739 -4.1574707 -4.157486z" fill-rule="evenodd"/><path fill="#ff9900" d="m803.0026 104.54068l0 0c0 -2.296112 1.8613892 -4.1574783 4.1574707 -4.1574783l0 0c1.1026611 0 2.1600952 0.4380188 2.9398193 1.2176971c0.7796631 0.77967834 1.2176514 1.8371506 1.2176514 2.9397812l0 0c0 2.296112 -1.8613281 4.157486 -4.1574707 4.157486l0 0c-2.2960815 0 -4.1574707 -1.8613739 -4.1574707 -4.157486z" fill-rule="evenodd"/><path stroke="#783f04" stroke-width="3.0" stroke-linejoin="round" stroke-linecap="butt" d="m803.0026 104.54068l0 0c0 -2.296112 1.8613892 -4.1574783 4.1574707 -4.1574783l0 0c1.1026611 0 2.1600952 0.4380188 2.9398193 1.2176971c0.7796631 0.77967834 1.2176514 1.8371506 1.2176514 2.9397812l0 0c0 2.296112 -1.8613281 4.157486 -4.1574707 4.157486l0 0c-2.2960815 0 -4.1574707 -1.8613739 -4.1574707 -4.157486z" fill-rule="evenodd"/><path fill="#ff9900" d="m865.4252 104.54068l0 0c0 -2.296112 1.8613892 -4.1574783 4.1575317 -4.1574783l0 0c1.1026001 0 2.1600952 0.4380188 2.9397583 1.2176971c0.7796631 0.77967834 1.2177124 1.8371506 1.2177124 2.9397812l0 0c0 2.296112 -1.8613892 4.157486 -4.1574707 4.157486l0 0c-2.2961426 0 -4.1575317 -1.8613739 -4.1575317 -4.157486z" fill-rule="evenodd"/><path stroke="#783f04" stroke-width="3.0" stroke-linejoin="round" stroke-linecap="butt" d="m865.4252 104.54068l0 0c0 -2.296112 1.8613892 -4.1574783 4.1575317 -4.1574783l0 0c1.1026001 0 2.1600952 0.4380188 2.9397583 1.2176971c0.7796631 0.77967834 1.2177124 1.8371506 1.2177124 2.9397812l0 0c0 2.296112 -1.8613892 4.157486 -4.1574707 4.157486l0 0c-2.2961426 0 -4.1575317 -1.8613739 -4.1575317 -4.157486z" fill-rule="evenodd"/><path fill="#ff9900" d="m205.56168 272.82678l0 0c0 -2.296112 1.8613739 -4.157501 4.157486 -4.157501l0 0c1.1026306 0 2.1600952 0.4380188 2.9397736 1.2177124c0.77967834 0.7796631 1.2177124 1.8371582 1.2177124 2.9397888l0 0c0 2.296112 -1.8613739 4.1574707 -4.157486 4.1574707l0 0c-2.296112 0 -4.157486 -1.8613586 -4.157486 -4.1574707z" fill-rule="evenodd"/><path stroke="#783f04" stroke-width="3.0" stroke-linejoin="round" stroke-linecap="butt" d="m205.56168 272.82678l0 0c0 -2.296112 1.8613739 -4.157501 4.157486 -4.157501l0 0c1.1026306 0 2.1600952 0.4380188 2.9397736 1.2177124c0.77967834 0.7796631 1.2177124 1.8371582 1.2177124 2.9397888l0 0c0 2.296112 -1.8613739 4.1574707 -4.157486 4.1574707l0 0c-2.296112 0 -4.157486 -1.8613586 -4.157486 -4.1574707z" fill-rule="evenodd"/><path fill="#ff9900" d="m197.24672 144.6378l0 0c0 -2.2961273 1.8613739 -4.157486 4.157486 -4.157486l0 0c1.1026306 0 2.1600952 0.4380188 2.9397736 1.2176971c0.77967834 0.77967834 1.2176971 1.837143 1.2176971 2.9397888l0 0c0 2.296112 -1.8613586 4.1574707 -4.1574707 4.1574707l0 0c-2.296112 0 -4.157486 -1.8613586 -4.157486 -4.1574707z" fill-rule="evenodd"/><path stroke="#783f04" stroke-width="3.0" stroke-linejoin="round" stroke-linecap="butt" d="m197.24672 144.6378l0 0c0 -2.2961273 1.8613739 -4.157486 4.157486 -4.157486l0 0c1.1026306 0 2.1600952 0.4380188 2.9397736 1.2176971c0.77967834 0.77967834 1.2176971 1.837143 1.2176971 2.9397888l0 0c0 2.296112 -1.8613586 4.1574707 -4.1574707 4.1574707l0 0c-2.296112 0 -4.157486 -1.8613586 -4.157486 -4.1574707z" fill-rule="evenodd"/><path fill="#ff9900" d="m550.77167 143.08267l0 0c0 -2.296112 1.8613281 -4.1574707 4.1574707 -4.1574707l0 0c1.1026001 0 2.1600952 0.4380188 2.9397583 1.2176971c0.7797241 0.77967834 1.2177124 1.837143 1.2177124 2.9397736l0 0c0 2.296112 -1.8613892 4.157486 -4.1574707 4.157486l0 0c-2.2961426 0 -4.1574707 -1.8613739 -4.1574707 -4.157486z" fill-rule="evenodd"/><path stroke="#783f04" stroke-width="3.0" stroke-linejoin="round" stroke-linecap="butt" d="m550.77167 143.08267l0 0c0 -2.296112 1.8613281 -4.1574707 4.1574707 -4.1574707l0 0c1.1026001 0 2.1600952 0.4380188 2.9397583 1.2176971c0.7797241 0.77967834 1.2177124 1.837143 1.2177124 2.9397736l0 0c0 2.296112 -1.8613892 4.157486 -4.1574707 4.157486l0 0c-2.2961426 0 -4.1574707 -1.8613739 -4.1574707 -4.157486z" fill-rule="evenodd"/><path fill="#ff9900" d="m685.60895 113.732285l0 0c0 -2.296112 1.8613281 -4.1574783 4.1574707 -4.1574783l0 0c1.1026001 0 2.1600952 0.4380188 2.9397583 1.2176971c0.7796631 0.77967834 1.2177124 1.8371506 1.2177124 2.9397812l0 0c0 2.296112 -1.8613892 4.1574783 -4.1574707 4.1574783l0 0c-2.2961426 0 -4.1574707 -1.8613663 -4.1574707 -4.1574783z" fill-rule="evenodd"/><path stroke="#783f04" stroke-width="3.0" stroke-linejoin="round" stroke-linecap="butt" d="m685.60895 113.732285l0 0c0 -2.296112 1.8613281 -4.1574783 4.1574707 -4.1574783l0 0c1.1026001 0 2.1600952 0.4380188 2.9397583 1.2176971c0.7796631 0.77967834 1.2177124 1.8371506 1.2177124 2.9397812l0 0c0 2.296112 -1.8613892 4.1574783 -4.1574707 4.1574783l0 0c-2.2961426 0 -4.1574707 -1.8613663 -4.1574707 -4.1574783z" fill-rule="evenodd"/><path fill="#ff9900" d="m736.6168 113.732285l0 0c0 -2.296112 1.8613281 -4.1574783 4.1574707 -4.1574783l0 0c1.1026001 0 2.1600952 0.4380188 2.9397583 1.2176971c0.7796631 0.77967834 1.2177124 1.8371506 1.2177124 2.9397812l0 0c0 2.296112 -1.8613892 4.1574783 -4.1574707 4.1574783l0 0c-2.2961426 0 -4.1574707 -1.8613663 -4.1574707 -4.1574783z" fill-rule="evenodd"/><path stroke="#783f04" stroke-width="3.0" stroke-linejoin="round" stroke-linecap="butt" d="m736.6168 113.732285l0 0c0 -2.296112 1.8613281 -4.1574783 4.1574707 -4.1574783l0 0c1.1026001 0 2.1600952 0.4380188 2.9397583 1.2176971c0.7796631 0.77967834 1.2177124 1.8371506 1.2177124 2.9397812l0 0c0 2.296112 -1.8613892 4.1574783 -4.1574707 4.1574783l0 0c-2.2961426 0 -4.1574707 -1.8613663 -4.1574707 -4.1574783z" fill-rule="evenodd"/><path fill="#ff9900" d="m353.80185 172.34251l0 0c0 -2.296112 1.8613586 -4.1574707 4.1574707 -4.1574707l0 0c1.1026306 0 2.1600952 0.4380188 2.9397888 1.2176971c0.7796631 0.77967834 1.2176819 1.837143 1.2176819 2.9397736l0 0c0 2.296112 -1.8613586 4.157486 -4.1574707 4.157486l0 0c-2.296112 0 -4.1574707 -1.8613739 -4.1574707 -4.157486z" fill-rule="evenodd"/><path stroke="#783f04" stroke-width="3.0" stroke-linejoin="round" stroke-linecap="butt" d="m353.80185 172.34251l0 0c0 -2.296112 1.8613586 -4.1574707 4.1574707 -4.1574707l0 0c1.1026306 0 2.1600952 0.4380188 2.9397888 1.2176971c0.7796631 0.77967834 1.2176819 1.837143 1.2176819 2.9397736l0 0c0 2.296112 -1.8613586 4.157486 -4.1574707 4.157486l0 0c-2.296112 0 -4.1574707 -1.8613739 -4.1574707 -4.157486z" fill-rule="evenodd"/><path fill="#ff9900" d="m238.69292 206.11679l0 0c0 -2.296112 1.8613586 -4.1574707 4.1574707 -4.1574707l0 0c1.1026459 0 2.1601105 0.4380188 2.9397888 1.2176971c0.77967834 0.77967834 1.2176971 1.837143 1.2176971 2.9397736l0 0c0 2.2961273 -1.8613739 4.157486 -4.157486 4.157486l0 0c-2.296112 0 -4.1574707 -1.8613586 -4.1574707 -4.157486z" fill-rule="evenodd"/><path stroke="#783f04" stroke-width="3.0" stroke-linejoin="round" stroke-linecap="butt" d="m238.69292 206.11679l0 0c0 -2.296112 1.8613586 -4.1574707 4.1574707 -4.1574707l0 0c1.1026459 0 2.1601105 0.4380188 2.9397888 1.2176971c0.77967834 0.77967834 1.2176971 1.837143 1.2176971 2.9397736l0 0c0 2.2961273 -1.8613739 4.157486 -4.157486 4.157486l0 0c-2.296112 0 -4.1574707 -1.8613586 -4.1574707 -4.157486z" fill-rule="evenodd"/><path fill="#ff9900" d="m468.09973 172.34251l0 0c0 -2.296112 1.8613586 -4.1574707 4.157501 -4.1574707l0 0c1.1026306 0 2.1600952 0.4380188 2.9397583 1.2176971c0.7796936 0.77967834 1.2177124 1.837143 1.2177124 2.9397736l0 0c0 2.296112 -1.8613586 4.157486 -4.1574707 4.157486l0 0c-2.2961426 0 -4.157501 -1.8613739 -4.157501 -4.157486z" fill-rule="evenodd"/><path stroke="#783f04" stroke-width="3.0" stroke-linejoin="round" stroke-linecap="butt" d="m468.09973 172.34251l0 0c0 -2.296112 1.8613586 -4.1574707 4.157501 -4.1574707l0 0c1.1026306 0 2.1600952 0.4380188 2.9397583 1.2176971c0.7796936 0.77967834 1.2177124 1.837143 1.2177124 2.9397736l0 0c0 2.296112 -1.8613586 4.157486 -4.1574707 4.157486l0 0c-2.2961426 0 -4.157501 -1.8613739 -4.157501 -4.157486z" fill-rule="evenodd"/><path fill="#ff9900" d="m244.95276 233.23228l0 0c0 -2.296112 1.8613586 -4.157486 4.1574707 -4.157486l0 0c1.1026459 0 2.1601105 0.4380188 2.9397888 1.2176971c0.77967834 0.77967834 1.2176971 1.8371582 1.2176971 2.9397888l0 0c0 2.296112 -1.8613586 4.157486 -4.157486 4.157486l0 0c-2.296112 0 -4.1574707 -1.8613739 -4.1574707 -4.157486z" fill-rule="evenodd"/><path stroke="#783f04" stroke-width="3.0" stroke-linejoin="round" stroke-linecap="butt" d="m244.95276 233.23228l0 0c0 -2.296112 1.8613586 -4.157486 4.1574707 -4.157486l0 0c1.1026459 0 2.1601105 0.4380188 2.9397888 1.2176971c0.77967834 0.77967834 1.2176971 1.8371582 1.2176971 2.9397888l0 0c0 2.296112 -1.8613586 4.157486 -4.157486 4.157486l0 0c-2.296112 0 -4.1574707 -1.8613739 -4.1574707 -4.157486z" fill-rule="evenodd"/><path fill="#ff9900" d="m208.1916 206.11679l0 0c0 -2.296112 1.8613586 -4.1574707 4.1574707 -4.1574707l0 0c1.1026459 0 2.1601105 0.4380188 2.9397888 1.2176971c0.77967834 0.77967834 1.2176971 1.837143 1.2176971 2.9397736l0 0c0 2.2961273 -1.8613739 4.157486 -4.157486 4.157486l0 0c-2.296112 0 -4.1574707 -1.8613586 -4.1574707 -4.157486z" fill-rule="evenodd"/><path stroke="#783f04" stroke-width="3.0" stroke-linejoin="round" stroke-linecap="butt" d="m208.1916 206.11679l0 0c0 -2.296112 1.8613586 -4.1574707 4.1574707 -4.1574707l0 0c1.1026459 0 2.1601105 0.4380188 2.9397888 1.2176971c0.77967834 0.77967834 1.2176971 1.837143 1.2176971 2.9397736l0 0c0 2.2961273 -1.8613739 4.157486 -4.157486 4.157486l0 0c-2.296112 0 -4.1574707 -1.8613586 -4.1574707 -4.157486z" fill-rule="evenodd"/><path fill="#ff9900" d="m272.3937 233.23228l0 0c0 -2.296112 1.8613586 -4.157486 4.1574707 -4.157486l0 0c1.1026306 0 2.1600952 0.4380188 2.9397888 1.2176971c0.7796631 0.77967834 1.2176819 1.8371582 1.2176819 2.9397888l0 0c0 2.296112 -1.8613586 4.157486 -4.1574707 4.157486l0 0c-2.296112 0 -4.1574707 -1.8613739 -4.1574707 -4.157486z" fill-rule="evenodd"/><path stroke="#783f04" stroke-width="3.0" stroke-linejoin="round" stroke-linecap="butt" d="m272.3937 233.23228l0 0c0 -2.296112 1.8613586 -4.157486 4.1574707 -4.157486l0 0c1.1026306 0 2.1600952 0.4380188 2.9397888 1.2176971c0.7796631 0.77967834 1.2176819 1.8371582 1.2176819 2.9397888l0 0c0 2.296112 -1.8613586 4.157486 -4.1574707 4.157486l0 0c-2.296112 0 -4.1574707 -1.8613739 -4.1574707 -4.157486z" fill-rule="evenodd"/><path fill="#ff9900" d="m391.67453 231.96194l0 0c0 -2.296112 1.8613892 -4.157486 4.157501 -4.157486l0 0c1.1026306 0 2.1600952 0.4380188 2.9397583 1.2176971c0.7796936 0.77967834 1.2177124 1.8371582 1.2177124 2.9397888l0 0c0 2.296112 -1.8613586 4.1574707 -4.1574707 4.1574707l0 0c-2.296112 0 -4.157501 -1.8613586 -4.157501 -4.1574707z" fill-rule="evenodd"/><path stroke="#783f04" stroke-width="3.0" stroke-linejoin="round" stroke-linecap="butt" d="m391.67453 231.96194l0 0c0 -2.296112 1.8613892 -4.157486 4.157501 -4.157486l0 0c1.1026306 0 2.1600952 0.4380188 2.9397583 1.2176971c0.7796936 0.77967834 1.2177124 1.8371582 1.2177124 2.9397888l0 0c0 2.296112 -1.8613586 4.1574707 -4.1574707 4.1574707l0 0c-2.296112 0 -4.157501 -1.8613586 -4.157501 -4.1574707z" fill-rule="evenodd"/><path fill="#ff9900" d="m421.75854 233.33595l0 0c0 -2.296112 1.8613586 -4.1574707 4.1574707 -4.1574707l0 0c1.1026306 0 2.1600952 0.4380188 2.9397888 1.2176971c0.7796631 0.77967834 1.2176819 1.837143 1.2176819 2.9397736l0 0c0 2.296112 -1.8613586 4.157486 -4.1574707 4.157486l0 0c-2.296112 0 -4.1574707 -1.8613739 -4.1574707 -4.157486z" fill-rule="evenodd"/><path stroke="#783f04" stroke-width="3.0" stroke-linejoin="round" stroke-linecap="butt" d="m421.75854 233.33595l0 0c0 -2.296112 1.8613586 -4.1574707 4.1574707 -4.1574707l0 0c1.1026306 0 2.1600952 0.4380188 2.9397888 1.2176971c0.7796631 0.77967834 1.2176819 1.837143 1.2176819 2.9397736l0 0c0 2.296112 -1.8613586 4.157486 -4.1574707 4.157486l0 0c-2.296112 0 -4.1574707 -1.8613739 -4.1574707 -4.157486z" fill-rule="evenodd"/><path fill="#ff9900" d="m468.09973 234.60104l0 0c0 -2.296112 1.8613586 -4.1574707 4.157501 -4.1574707l0 0c1.1026306 0 2.1600952 0.4380188 2.9397583 1.2176971c0.7796936 0.77967834 1.2177124 1.837143 1.2177124 2.9397736l0 0c0 2.296112 -1.8613586 4.157486 -4.1574707 4.157486l0 0c-2.2961426 0 -4.157501 -1.8613739 -4.157501 -4.157486z" fill-rule="evenodd"/><path stroke="#783f04" stroke-width="3.0" stroke-linejoin="round" stroke-linecap="butt" d="m468.09973 234.60104l0 0c0 -2.296112 1.8613586 -4.1574707 4.157501 -4.1574707l0 0c1.1026306 0 2.1600952 0.4380188 2.9397583 1.2176971c0.7796936 0.77967834 1.2177124 1.837143 1.2177124 2.9397736l0 0c0 2.296112 -1.8613586 4.157486 -4.1574707 4.157486l0 0c-2.2961426 0 -4.157501 -1.8613739 -4.157501 -4.157486z" fill-rule="evenodd"/><path fill="#ff9900" d="m544.52496 233.23228l0 0c0 -2.296112 1.8613281 -4.157486 4.1574707 -4.157486l0 0c1.1026001 0 2.1600952 0.4380188 2.9397583 1.2176971c0.7796631 0.77967834 1.2177124 1.8371582 1.2177124 2.9397888l0 0c0 2.296112 -1.8613892 4.157486 -4.1574707 4.157486l0 0c-2.2961426 0 -4.1574707 -1.8613739 -4.1574707 -4.157486z" fill-rule="evenodd"/><path stroke="#783f04" stroke-width="3.0" stroke-linejoin="round" stroke-linecap="butt" d="m544.52496 233.23228l0 0c0 -2.296112 1.8613281 -4.157486 4.1574707 -4.157486l0 0c1.1026001 0 2.1600952 0.4380188 2.9397583 1.2176971c0.7796631 0.77967834 1.2177124 1.8371582 1.2177124 2.9397888l0 0c0 2.296112 -1.8613892 4.157486 -4.1574707 4.157486l0 0c-2.2961426 0 -4.1574707 -1.8613739 -4.1574707 -4.157486z" fill-rule="evenodd"/><path fill="#ff9900" d="m221.92914 272.82678l0 0c0 -2.296112 1.8613586 -4.157501 4.1574707 -4.157501l0 0c1.1026306 0 2.1601105 0.4380188 2.9397888 1.2177124c0.77967834 0.7796631 1.2176971 1.8371582 1.2176971 2.9397888l0 0c0 2.296112 -1.8613739 4.1574707 -4.157486 4.1574707l0 0c-2.296112 0 -4.1574707 -1.8613586 -4.1574707 -4.1574707z" fill-rule="evenodd"/><path stroke="#783f04" stroke-width="3.0" stroke-linejoin="round" stroke-linecap="butt" d="m221.92914 272.82678l0 0c0 -2.296112 1.8613586 -4.157501 4.1574707 -4.157501l0 0c1.1026306 0 2.1601105 0.4380188 2.9397888 1.2177124c0.77967834 0.7796631 1.2176971 1.8371582 1.2176971 2.9397888l0 0c0 2.296112 -1.8613739 4.1574707 -4.157486 4.1574707l0 0c-2.296112 0 -4.1574707 -1.8613586 -4.1574707 -4.1574707z" fill-rule="evenodd"/><path fill="#ff9900" d="m236.6378 272.82678l0 0c0 -2.296112 1.8613586 -4.157501 4.1574707 -4.157501l0 0c1.1026306 0 2.1601105 0.4380188 2.9397888 1.2177124c0.77967834 0.7796631 1.2176971 1.8371582 1.2176971 2.9397888l0 0c0 2.296112 -1.8613739 4.1574707 -4.157486 4.1574707l0 0c-2.296112 0 -4.1574707 -1.8613586 -4.1574707 -4.1574707z" fill-rule="evenodd"/><path stroke="#783f04" stroke-width="3.0" stroke-linejoin="round" stroke-linecap="butt" d="m236.6378 272.82678l0 0c0 -2.296112 1.8613586 -4.157501 4.1574707 -4.157501l0 0c1.1026306 0 2.1601105 0.4380188 2.9397888 1.2177124c0.77967834 0.7796631 1.2176971 1.8371582 1.2176971 2.9397888l0 0c0 2.296112 -1.8613739 4.1574707 -4.157486 4.1574707l0 0c-2.296112 0 -4.1574707 -1.8613586 -4.1574707 -4.1574707z" fill-rule="evenodd"/><path fill="#ff9900" d="m251.34645 273.03018l0 0c0 -2.296112 1.8613739 -4.1574707 4.157486 -4.1574707l0 0c1.1026306 0 2.1600952 0.4380188 2.9397888 1.2176819c0.7796631 0.7796936 1.2176819 1.8371582 1.2176819 2.9397888l0 0c0 2.296112 -1.8613586 4.1574707 -4.1574707 4.1574707l0 0c-2.296112 0 -4.157486 -1.8613586 -4.157486 -4.1574707z" fill-rule="evenodd"/><path stroke="#783f04" stroke-width="3.0" stroke-linejoin="round" stroke-linecap="butt" d="m251.34645 273.03018l0 0c0 -2.296112 1.8613739 -4.1574707 4.157486 -4.1574707l0 0c1.1026306 0 2.1600952 0.4380188 2.9397888 1.2176819c0.7796631 0.7796936 1.2176819 1.8371582 1.2176819 2.9397888l0 0c0 2.296112 -1.8613586 4.1574707 -4.1574707 4.1574707l0 0c-2.296112 0 -4.157486 -1.8613586 -4.157486 -4.1574707z" fill-rule="evenodd"/><path fill="#ff9900" d="m244.95276 242.7664l0 0c0 -2.296112 1.8613586 -4.157486 4.1574707 -4.157486l0 0c1.1026459 0 2.1601105 0.4380188 2.9397888 1.2176971c0.77967834 0.7796936 1.2176971 1.8371582 1.2176971 2.9397888l0 0c0 2.296112 -1.8613586 4.157486 -4.157486 4.157486l0 0c-2.296112 0 -4.1574707 -1.8613739 -4.1574707 -4.157486z" fill-rule="evenodd"/><path stroke="#783f04" stroke-width="3.0" stroke-linejoin="round" stroke-linecap="butt" d="m244.95276 242.7664l0 0c0 -2.296112 1.8613586 -4.157486 4.1574707 -4.157486l0 0c1.1026459 0 2.1601105 0.4380188 2.9397888 1.2176971c0.77967834 0.7796936 1.2176971 1.8371582 1.2176971 2.9397888l0 0c0 2.296112 -1.8613586 4.157486 -4.157486 4.157486l0 0c-2.296112 0 -4.1574707 -1.8613739 -4.1574707 -4.157486z" fill-rule="evenodd"/><path fill="#ff9900" d="m251.34645 252.21129l0 0c0 -2.296112 1.8613739 -4.157486 4.157486 -4.157486l0 0c1.1026306 0 2.1600952 0.4380188 2.9397888 1.2176971c0.7796631 0.77967834 1.2176819 1.8371582 1.2176819 2.9397888l0 0c0 2.296112 -1.8613586 4.157486 -4.1574707 4.157486l0 0c-2.296112 0 -4.157486 -1.8613739 -4.157486 -4.157486z" fill-rule="evenodd"/><path stroke="#783f04" stroke-width="3.0" stroke-linejoin="round" stroke-linecap="butt" d="m251.34645 252.21129l0 0c0 -2.296112 1.8613739 -4.157486 4.157486 -4.157486l0 0c1.1026306 0 2.1600952 0.4380188 2.9397888 1.2176971c0.7796631 0.77967834 1.2176819 1.8371582 1.2176819 2.9397888l0 0c0 2.296112 -1.8613586 4.157486 -4.1574707 4.157486l0 0c-2.296112 0 -4.157486 -1.8613739 -4.157486 -4.157486z" fill-rule="evenodd"/><path fill="#ff9900" d="m303.5748 252.21129l0 0c0 -2.296112 1.8613586 -4.157486 4.1574707 -4.157486l0 0c1.1026611 0 2.1601257 0.4380188 2.9397888 1.2176971c0.7796936 0.77967834 1.2177124 1.8371582 1.2177124 2.9397888l0 0c0 2.296112 -1.8613892 4.157486 -4.157501 4.157486l0 0c-2.296112 0 -4.1574707 -1.8613739 -4.1574707 -4.157486z" fill-rule="evenodd"/><path stroke="#783f04" stroke-width="3.0" stroke-linejoin="round" stroke-linecap="butt" d="m303.5748 252.21129l0 0c0 -2.296112 1.8613586 -4.157486 4.1574707 -4.157486l0 0c1.1026611 0 2.1601257 0.4380188 2.9397888 1.2176971c0.7796936 0.77967834 1.2177124 1.8371582 1.2177124 2.9397888l0 0c0 2.296112 -1.8613892 4.157486 -4.157501 4.157486l0 0c-2.296112 0 -4.1574707 -1.8613739 -4.1574707 -4.157486z" fill-rule="evenodd"/><path fill="#ff9900" d="m353.80316 242.7664l0 0c0 -2.296112 1.8613586 -4.157486 4.1574707 -4.157486l0 0c1.1026306 0 2.1600952 0.4380188 2.9397888 1.2176971c0.7796631 0.7796936 1.2176819 1.8371582 1.2176819 2.9397888l0 0c0 2.296112 -1.8613586 4.157486 -4.1574707 4.157486l0 0c-2.296112 0 -4.1574707 -1.8613739 -4.1574707 -4.157486z" fill-rule="evenodd"/><path stroke="#783f04" stroke-width="3.0" stroke-linejoin="round" stroke-linecap="butt" d="m353.80316 242.7664l0 0c0 -2.296112 1.8613586 -4.157486 4.1574707 -4.157486l0 0c1.1026306 0 2.1600952 0.4380188 2.9397888 1.2176971c0.7796631 0.7796936 1.2176819 1.8371582 1.2176819 2.9397888l0 0c0 2.296112 -1.8613586 4.157486 -4.1574707 4.157486l0 0c-2.296112 0 -4.1574707 -1.8613739 -4.1574707 -4.157486z" fill-rule="evenodd"/><path fill="#ff9900" d="m480.0 254.8189l0 0c0 -2.296112 1.8613586 -4.1574707 4.1574707 -4.1574707l0 0c1.1026306 0 2.1601257 0.4380188 2.9397888 1.2176971c0.7796936 0.77967834 1.2177124 1.837143 1.2177124 2.9397736l0 0c0 2.2961273 -1.8613892 4.157486 -4.157501 4.157486l0 0c-2.296112 0 -4.1574707 -1.8613586 -4.1574707 -4.157486z" fill-rule="evenodd"/><path stroke="#783f04" stroke-width="3.0" stroke-linejoin="round" stroke-linecap="butt" d="m480.0 254.8189l0 0c0 -2.296112 1.8613586 -4.1574707 4.1574707 -4.1574707l0 0c1.1026306 0 2.1601257 0.4380188 2.9397888 1.2176971c0.7796936 0.77967834 1.2177124 1.837143 1.2177124 2.9397736l0 0c0 2.2961273 -1.8613892 4.157486 -4.157501 4.157486l0 0c-2.296112 0 -4.1574707 -1.8613586 -4.1574707 -4.157486z" fill-rule="evenodd"/><path fill="#ff9900" d="m494.51706 243.34776l0 0c0 -2.296112 1.8613586 -4.1574707 4.1574707 -4.1574707l0 0c1.1026306 0 2.1601257 0.4380188 2.9397888 1.2176971c0.7796936 0.77967834 1.2177124 1.837143 1.2177124 2.9397736l0 0c0 2.296112 -1.8613892 4.157486 -4.157501 4.157486l0 0c-2.296112 0 -4.1574707 -1.8613739 -4.1574707 -4.157486z" fill-rule="evenodd"/><path stroke="#783f04" stroke-width="3.0" stroke-linejoin="round" stroke-linecap="butt" d="m494.51706 243.34776l0 0c0 -2.296112 1.8613586 -4.1574707 4.1574707 -4.1574707l0 0c1.1026306 0 2.1601257 0.4380188 2.9397888 1.2176971c0.7796936 0.77967834 1.2177124 1.837143 1.2177124 2.9397736l0 0c0 2.296112 -1.8613892 4.157486 -4.157501 4.157486l0 0c-2.296112 0 -4.1574707 -1.8613739 -4.1574707 -4.157486z" fill-rule="evenodd"/><path fill="#ff9900" d="m544.52496 242.7664l0 0c0 -2.296112 1.8613281 -4.157486 4.1574707 -4.157486l0 0c1.1026001 0 2.1600952 0.4380188 2.9397583 1.2176971c0.7796631 0.7796936 1.2177124 1.8371582 1.2177124 2.9397888l0 0c0 2.296112 -1.8613892 4.157486 -4.1574707 4.157486l0 0c-2.2961426 0 -4.1574707 -1.8613739 -4.1574707 -4.157486z" fill-rule="evenodd"/><path stroke="#783f04" stroke-width="3.0" stroke-linejoin="round" stroke-linecap="butt" d="m544.52496 242.7664l0 0c0 -2.296112 1.8613281 -4.157486 4.1574707 -4.157486l0 0c1.1026001 0 2.1600952 0.4380188 2.9397583 1.2176971c0.7796631 0.7796936 1.2177124 1.8371582 1.2177124 2.9397888l0 0c0 2.296112 -1.8613892 4.157486 -4.1574707 4.157486l0 0c-2.2961426 0 -4.1574707 -1.8613739 -4.1574707 -4.157486z" fill-rule="evenodd"/><path fill="#ff9900" d="m507.90552 252.21129l0 0c0 -2.296112 1.8613586 -4.157486 4.1574707 -4.157486l0 0c1.1026611 0 2.1600952 0.4380188 2.9397583 1.2176971c0.7797241 0.77967834 1.2177124 1.8371582 1.2177124 2.9397888l0 0c0 2.296112 -1.8613281 4.157486 -4.1574707 4.157486l0 0c-2.296112 0 -4.1574707 -1.8613739 -4.1574707 -4.157486z" fill-rule="evenodd"/><path stroke="#783f04" stroke-width="3.0" stroke-linejoin="round" stroke-linecap="butt" d="m507.90552 252.21129l0 0c0 -2.296112 1.8613586 -4.157486 4.1574707 -4.157486l0 0c1.1026611 0 2.1600952 0.4380188 2.9397583 1.2176971c0.7797241 0.77967834 1.2177124 1.8371582 1.2177124 2.9397888l0 0c0 2.296112 -1.8613281 4.157486 -4.1574707 4.157486l0 0c-2.296112 0 -4.1574707 -1.8613739 -4.1574707 -4.157486z" fill-rule="evenodd"/><path fill="#ff9900" d="m547.45404 68.42388l0 0c0 -2.296112 1.8613892 -4.1574783 4.1575317 -4.1574783l0 0c1.1026001 0 2.1600952 0.4380188 2.9397583 1.2176971c0.7796631 0.77967834 1.2177124 1.8371506 1.2177124 2.9397812l0 0c0 2.2961197 -1.8613892 4.157486 -4.1574707 4.157486l0 0c-2.2961426 0 -4.1575317 -1.8613663 -4.1575317 -4.157486z" fill-rule="evenodd"/><path stroke="#783f04" stroke-width="3.0" stroke-linejoin="round" stroke-linecap="butt" d="m547.45404 68.42388l0 0c0 -2.296112 1.8613892 -4.1574783 4.1575317 -4.1574783l0 0c1.1026001 0 2.1600952 0.4380188 2.9397583 1.2176971c0.7796631 0.77967834 1.2177124 1.8371506 1.2177124 2.9397812l0 0c0 2.2961197 -1.8613892 4.157486 -4.1574707 4.157486l0 0c-2.2961426 0 -4.1575317 -1.8613663 -4.1575317 -4.157486z" fill-rule="evenodd"/><path fill="#ff9900" d="m563.9921 68.42388l0 0c0 -2.296112 1.8613892 -4.1574783 4.1574707 -4.1574783l0 0c1.1026611 0 2.1600952 0.4380188 2.9398193 1.2176971c0.7796631 0.77967834 1.2176514 1.8371506 1.2176514 2.9397812l0 0c0 2.2961197 -1.8613281 4.157486 -4.1574707 4.157486l0 0c-2.2960815 0 -4.1574707 -1.8613663 -4.1574707 -4.157486z" fill-rule="evenodd"/><path stroke="#783f04" stroke-width="3.0" stroke-linejoin="round" stroke-linecap="butt" d="m563.9921 68.42388l0 0c0 -2.296112 1.8613892 -4.1574783 4.1574707 -4.1574783l0 0c1.1026611 0 2.1600952 0.4380188 2.9398193 1.2176971c0.7796631 0.77967834 1.2176514 1.8371506 1.2176514 2.9397812l0 0c0 2.2961197 -1.8613281 4.157486 -4.1574707 4.157486l0 0c-2.2960815 0 -4.1574707 -1.8613663 -4.1574707 -4.157486z" fill-rule="evenodd"/><path fill="#ff9900" d="m188.93176 69.94882l0 0c0 -2.2961197 1.8613586 -4.157486 4.1574707 -4.157486l0 0c1.1026306 0 2.1601105 0.4380188 2.9397888 1.2176971c0.77967834 0.77967834 1.2176971 1.8371506 1.2176971 2.9397888l0 0c0 2.296112 -1.8613739 4.1574783 -4.157486 4.1574783l0 0c-2.296112 0 -4.1574707 -1.8613663 -4.1574707 -4.1574783z" fill-rule="evenodd"/><path stroke="#783f04" stroke-width="3.0" stroke-linejoin="round" stroke-linecap="butt" d="m188.93176 69.94882l0 0c0 -2.2961197 1.8613586 -4.157486 4.1574707 -4.157486l0 0c1.1026306 0 2.1601105 0.4380188 2.9397888 1.2176971c0.77967834 0.77967834 1.2176971 1.8371506 1.2176971 2.9397888l0 0c0 2.296112 -1.8613739 4.1574783 -4.157486 4.1574783l0 0c-2.296112 0 -4.1574707 -1.8613663 -4.1574707 -4.1574783z" fill-rule="evenodd"/><path fill="#ff9900" d="m600.68506 80.88976l0 0c0 -2.296112 1.8613281 -4.1574783 4.1574707 -4.1574783l0 0c1.1026001 0 2.1600952 0.4380188 2.9397583 1.2176971c0.7796631 0.77967834 1.2177124 1.8371506 1.2177124 2.9397812l0 0c0 2.296112 -1.8613892 4.1574783 -4.1574707 4.1574783l0 0c-2.2961426 0 -4.1574707 -1.8613663 -4.1574707 -4.1574783z" fill-rule="evenodd"/><path stroke="#783f04" stroke-width="3.0" stroke-linejoin="round" stroke-linecap="butt" d="m600.68506 80.88976l0 0c0 -2.296112 1.8613281 -4.1574783 4.1574707 -4.1574783l0 0c1.1026001 0 2.1600952 0.4380188 2.9397583 1.2176971c0.7796631 0.77967834 1.2177124 1.8371506 1.2177124 2.9397812l0 0c0 2.296112 -1.8613892 4.1574783 -4.1574707 4.1574783l0 0c-2.2961426 0 -4.1574707 -1.8613663 -4.1574707 -4.1574783z" fill-rule="evenodd"/><path fill="#ff9900" d="m763.26245 80.88845l0 0c0 -2.296112 1.8613892 -4.1574783 4.1574707 -4.1574783l0 0c1.1026611 0 2.1601562 0.4380188 2.9398193 1.2176971c0.7796631 0.77967834 1.2177124 1.8371506 1.2177124 2.9397812l0 0c0 2.296112 -1.8613892 4.1574783 -4.1575317 4.1574783l0 0c-2.2960815 0 -4.1574707 -1.8613663 -4.1574707 -4.1574783z" fill-rule="evenodd"/><path stroke="#783f04" stroke-width="3.0" stroke-linejoin="round" stroke-linecap="butt" d="m763.26245 80.88845l0 0c0 -2.296112 1.8613892 -4.1574783 4.1574707 -4.1574783l0 0c1.1026611 0 2.1601562 0.4380188 2.9398193 1.2176971c0.7796631 0.77967834 1.2177124 1.8371506 1.2177124 2.9397812l0 0c0 2.296112 -1.8613892 4.1574783 -4.1575317 4.1574783l0 0c-2.2960815 0 -4.1574707 -1.8613663 -4.1574707 -4.1574783z" fill-rule="evenodd"/><path fill="#ff9900" d="m818.0184 80.88845l0 0c0 -2.296112 1.8613892 -4.1574783 4.1574707 -4.1574783l0 0c1.1026611 0 2.1600952 0.4380188 2.9398193 1.2176971c0.7796631 0.77967834 1.2176514 1.8371506 1.2176514 2.9397812l0 0c0 2.296112 -1.8613281 4.1574783 -4.1574707 4.1574783l0 0c-2.2960815 0 -4.1574707 -1.8613663 -4.1574707 -4.1574783z" fill-rule="evenodd"/><path stroke="#783f04" stroke-width="3.0" stroke-linejoin="round" stroke-linecap="butt" d="m818.0184 80.88845l0 0c0 -2.296112 1.8613892 -4.1574783 4.1574707 -4.1574783l0 0c1.1026611 0 2.1600952 0.4380188 2.9398193 1.2176971c0.7796631 0.77967834 1.2176514 1.8371506 1.2176514 2.9397812l0 0c0 2.296112 -1.8613281 4.1574783 -4.1574707 4.1574783l0 0c-2.2960815 0 -4.1574707 -1.8613663 -4.1574707 -4.1574783z" fill-rule="evenodd"/><path fill="#ff9900" d="m853.68243 80.88845l0 0c0 -2.296112 1.8613281 -4.1574783 4.1574707 -4.1574783l0 0c1.1026001 0 2.1600952 0.4380188 2.9397583 1.2176971c0.7796631 0.77967834 1.2177124 1.8371506 1.2177124 2.9397812l0 0c0 2.296112 -1.8613892 4.1574783 -4.1574707 4.1574783l0 0c-2.2961426 0 -4.1574707 -1.8613663 -4.1574707 -4.1574783z" fill-rule="evenodd"/><path stroke="#783f04" stroke-width="3.0" stroke-linejoin="round" stroke-linecap="butt" d="m853.68243 80.88845l0 0c0 -2.296112 1.8613281 -4.1574783 4.1574707 -4.1574783l0 0c1.1026001 0 2.1600952 0.4380188 2.9397583 1.2176971c0.7796631 0.77967834 1.2177124 1.8371506 1.2177124 2.9397812l0 0c0 2.296112 -1.8613892 4.1574783 -4.1574707 4.1574783l0 0c-2.2961426 0 -4.1574707 -1.8613663 -4.1574707 -4.1574783z" fill-rule="evenodd"/><path fill="#000000" fill-opacity="0.0" d="m585.2362 207.19817l30.11023 0" fill-rule="evenodd"/><path stroke="#b45f06" stroke-width="8.0" stroke-linejoin="round" stroke-linecap="butt" d="m585.2362 207.19817l30.11023 0" fill-rule="evenodd"/><path fill="#ff9900" d="m612.89764 206.11548l0 0c0 -2.296112 1.8613892 -4.1574707 4.1574707 -4.1574707l0 0c1.1026611 0 2.1600952 0.4380188 2.9397583 1.2176971c0.7797241 0.77967834 1.2177124 1.837143 1.2177124 2.9397736l0 0c0 2.2961273 -1.8613281 4.157486 -4.1574707 4.157486l0 0c-2.2960815 0 -4.1574707 -1.8613586 -4.1574707 -4.157486z" fill-rule="evenodd"/><path stroke="#783f04" stroke-width="3.0" stroke-linejoin="round" stroke-linecap="butt" d="m612.89764 206.11548l0 0c0 -2.296112 1.8613892 -4.1574707 4.1574707 -4.1574707l0 0c1.1026611 0 2.1600952 0.4380188 2.9397583 1.2176971c0.7797241 0.77967834 1.2177124 1.837143 1.2177124 2.9397736l0 0c0 2.2961273 -1.8613281 4.157486 -4.1574707 4.157486l0 0c-2.2960815 0 -4.1574707 -1.8613586 -4.1574707 -4.157486z" fill-rule="evenodd"/><path fill="#ff9900" d="m582.3963 206.11548l0 0c0 -2.296112 1.8613892 -4.1574707 4.1575317 -4.1574707l0 0c1.1026001 0 2.1600952 0.4380188 2.9397583 1.2176971c0.7796631 0.77967834 1.2177124 1.837143 1.2177124 2.9397736l0 0c0 2.2961273 -1.8613892 4.157486 -4.1574707 4.157486l0 0c-2.2961426 0 -4.1575317 -1.8613586 -4.1575317 -4.157486z" fill-rule="evenodd"/><path stroke="#783f04" stroke-width="3.0" stroke-linejoin="round" stroke-linecap="butt" d="m582.3963 206.11548l0 0c0 -2.296112 1.8613892 -4.1574707 4.1575317 -4.1574707l0 0c1.1026001 0 2.1600952 0.4380188 2.9397583 1.2176971c0.7796631 0.77967834 1.2177124 1.837143 1.2177124 2.9397736l0 0c0 2.2961273 -1.8613892 4.157486 -4.1574707 4.157486l0 0c-2.2961426 0 -4.1575317 -1.8613586 -4.1575317 -4.157486z" fill-rule="evenodd"/><path fill="#000000" fill-opacity="0.0" d="m803.7349 207.19948l30.11023 0" fill-rule="evenodd"/><path stroke="#b45f06" stroke-width="8.0" stroke-linejoin="round" stroke-linecap="butt" d="m803.7349 207.19948l30.11023 0" fill-rule="evenodd"/><path fill="#ff9900" d="m831.3963 206.11679l0 0c0 -2.296112 1.8613892 -4.1574707 4.1575317 -4.1574707l0 0c1.1026001 0 2.1600952 0.4380188 2.9397583 1.2176971c0.7796631 0.77967834 1.2177124 1.837143 1.2177124 2.9397736l0 0c0 2.2961273 -1.8613892 4.157486 -4.1574707 4.157486l0 0c-2.2961426 0 -4.1575317 -1.8613586 -4.1575317 -4.157486z" fill-rule="evenodd"/><path stroke="#783f04" stroke-width="3.0" stroke-linejoin="round" stroke-linecap="butt" d="m831.3963 206.11679l0 0c0 -2.296112 1.8613892 -4.1574707 4.1575317 -4.1574707l0 0c1.1026001 0 2.1600952 0.4380188 2.9397583 1.2176971c0.7796631 0.77967834 1.2177124 1.837143 1.2177124 2.9397736l0 0c0 2.2961273 -1.8613892 4.157486 -4.1574707 4.157486l0 0c-2.2961426 0 -4.1575317 -1.8613586 -4.1575317 -4.157486z" fill-rule="evenodd"/><path fill="#ff9900" d="m800.895 206.11679l0 0c0 -2.296112 1.8613892 -4.1574707 4.1574707 -4.1574707l0 0c1.1026611 0 2.1600952 0.4380188 2.9397583 1.2176971c0.7797241 0.77967834 1.2177124 1.837143 1.2177124 2.9397736l0 0c0 2.2961273 -1.8613281 4.157486 -4.1574707 4.157486l0 0c-2.2960815 0 -4.1574707 -1.8613586 -4.1574707 -4.157486z" fill-rule="evenodd"/><path stroke="#783f04" stroke-width="3.0" stroke-linejoin="round" stroke-linecap="butt" d="m800.895 206.11679l0 0c0 -2.296112 1.8613892 -4.1574707 4.1574707 -4.1574707l0 0c1.1026611 0 2.1600952 0.4380188 2.9397583 1.2176971c0.7797241 0.77967834 1.2177124 1.837143 1.2177124 2.9397736l0 0c0 2.2961273 -1.8613281 4.157486 -4.1574707 4.157486l0 0c-2.2960815 0 -4.1574707 -1.8613586 -4.1574707 -4.157486z" fill-rule="evenodd"/><path fill="#000000" fill-opacity="0.0" d="m579.24146 233.37927l30.11023 0" fill-rule="evenodd"/><path stroke="#38761d" stroke-width="8.0" stroke-linejoin="round" stroke-linecap="butt" d="m579.24146 233.37927l30.11023 0" fill-rule="evenodd"/><path fill="#000000" fill-opacity="0.0" d="m579.24146 242.72047l111.49609 0" fill-rule="evenodd"/><path stroke="#38761d" stroke-width="8.0" stroke-linejoin="round" stroke-linecap="butt" d="m579.24146 242.72047l111.49609 0" fill-rule="evenodd"/><path fill="#ff9900" d="m577.18634 233.27559l0 0c0 -2.296112 1.8613892 -4.157486 4.1574707 -4.157486l0 0c1.1026611 0 2.1600952 0.4380188 2.9398193 1.2177124c0.7796631 0.77967834 1.2177124 1.837143 1.2177124 2.9397736l0 0c0 2.296112 -1.8613892 4.157486 -4.1575317 4.157486l0 0c-2.2960815 0 -4.1574707 -1.8613739 -4.1574707 -4.157486z" fill-rule="evenodd"/><path stroke="#783f04" stroke-width="3.0" stroke-linejoin="round" stroke-linecap="butt" d="m577.18634 233.27559l0 0c0 -2.296112 1.8613892 -4.157486 4.1574707 -4.157486l0 0c1.1026611 0 2.1600952 0.4380188 2.9398193 1.2177124c0.7796631 0.77967834 1.2177124 1.837143 1.2177124 2.9397736l0 0c0 2.296112 -1.8613892 4.157486 -4.1575317 4.157486l0 0c-2.2960815 0 -4.1574707 -1.8613739 -4.1574707 -4.157486z" fill-rule="evenodd"/><path fill="#ff9900" d="m604.6273 233.27559l0 0c0 -2.296112 1.8613281 -4.157486 4.1574707 -4.157486l0 0c1.1026001 0 2.1600952 0.4380188 2.9397583 1.2177124c0.7796631 0.77967834 1.2177124 1.837143 1.2177124 2.9397736l0 0c0 2.296112 -1.8613892 4.157486 -4.1574707 4.157486l0 0c-2.2961426 0 -4.1574707 -1.8613739 -4.1574707 -4.157486z" fill-rule="evenodd"/><path stroke="#783f04" stroke-width="3.0" stroke-linejoin="round" stroke-linecap="butt" d="m604.6273 233.27559l0 0c0 -2.296112 1.8613281 -4.157486 4.1574707 -4.157486l0 0c1.1026001 0 2.1600952 0.4380188 2.9397583 1.2177124c0.7796631 0.77967834 1.2177124 1.837143 1.2177124 2.9397736l0 0c0 2.296112 -1.8613892 4.157486 -4.1574707 4.157486l0 0c-2.2961426 0 -4.1574707 -1.8613739 -4.1574707 -4.157486z" fill-rule="evenodd"/><path fill="#ff9900" d="m577.18634 242.80971l0 0c0 -2.296112 1.8613892 -4.1574707 4.1574707 -4.1574707l0 0c1.1026611 0 2.1600952 0.4380188 2.9398193 1.2176971c0.7796631 0.77967834 1.2177124 1.837143 1.2177124 2.9397736l0 0c0 2.296112 -1.8613892 4.157486 -4.1575317 4.157486l0 0c-2.2960815 0 -4.1574707 -1.8613739 -4.1574707 -4.157486z" fill-rule="evenodd"/><path stroke="#783f04" stroke-width="3.0" stroke-linejoin="round" stroke-linecap="butt" d="m577.18634 242.80971l0 0c0 -2.296112 1.8613892 -4.1574707 4.1574707 -4.1574707l0 0c1.1026611 0 2.1600952 0.4380188 2.9398193 1.2176971c0.7796631 0.77967834 1.2177124 1.837143 1.2177124 2.9397736l0 0c0 2.296112 -1.8613892 4.157486 -4.1575317 4.157486l0 0c-2.2960815 0 -4.1574707 -1.8613739 -4.1574707 -4.157486z" fill-rule="evenodd"/><path fill="#ff9900" d="m686.03674 242.80971l0 0c0 -2.296112 1.8613892 -4.1574707 4.1574707 -4.1574707l0 0c1.1026611 0 2.1600952 0.4380188 2.9398193 1.2176971c0.7796631 0.77967834 1.2176514 1.837143 1.2176514 2.9397736l0 0c0 2.296112 -1.8613281 4.157486 -4.1574707 4.157486l0 0c-2.2960815 0 -4.1574707 -1.8613739 -4.1574707 -4.157486z" fill-rule="evenodd"/><path stroke="#783f04" stroke-width="3.0" stroke-linejoin="round" stroke-linecap="butt" d="m686.03674 242.80971l0 0c0 -2.296112 1.8613892 -4.1574707 4.1574707 -4.1574707l0 0c1.1026611 0 2.1600952 0.4380188 2.9398193 1.2176971c0.7796631 0.77967834 1.2176514 1.837143 1.2176514 2.9397736l0 0c0 2.296112 -1.8613281 4.157486 -4.1574707 4.157486l0 0c-2.2960815 0 -4.1574707 -1.8613739 -4.1574707 -4.157486z" fill-rule="evenodd"/><path fill="#000000" fill-opacity="0.0" d="m807.83466 233.37927l30.11023 0" fill-rule="evenodd"/><path stroke="#38761d" stroke-width="8.0" stroke-linejoin="round" stroke-linecap="butt" d="m807.83466 233.37927l30.11023 0" fill-rule="evenodd"/><path fill="#ff9900" d="m805.77954 233.27559l0 0c0 -2.296112 1.8613281 -4.157486 4.1574707 -4.157486l0 0c1.1026001 0 2.1600952 0.4380188 2.9397583 1.2177124c0.7797241 0.77967834 1.2177124 1.837143 1.2177124 2.9397736l0 0c0 2.296112 -1.8613892 4.157486 -4.1574707 4.157486l0 0c-2.2961426 0 -4.1574707 -1.8613739 -4.1574707 -4.157486z" fill-rule="evenodd"/><path stroke="#783f04" stroke-width="3.0" stroke-linejoin="round" stroke-linecap="butt" d="m805.77954 233.27559l0 0c0 -2.296112 1.8613281 -4.157486 4.1574707 -4.157486l0 0c1.1026001 0 2.1600952 0.4380188 2.9397583 1.2177124c0.7797241 0.77967834 1.2177124 1.837143 1.2177124 2.9397736l0 0c0 2.296112 -1.8613892 4.157486 -4.1574707 4.157486l0 0c-2.2961426 0 -4.1574707 -1.8613739 -4.1574707 -4.157486z" fill-rule="evenodd"/><path fill="#ff9900" d="m833.22046 233.27559l0 0c0 -2.296112 1.8613892 -4.157486 4.1574707 -4.157486l0 0c1.1026611 0 2.1601562 0.4380188 2.9398193 1.2177124c0.7796631 0.77967834 1.2177124 1.837143 1.2177124 2.9397736l0 0c0 2.296112 -1.8613892 4.157486 -4.1575317 4.157486l0 0c-2.2960815 0 -4.1574707 -1.8613739 -4.1574707 -4.157486z" fill-rule="evenodd"/><path stroke="#783f04" stroke-width="3.0" stroke-linejoin="round" stroke-linecap="butt" d="m833.22046 233.27559l0 0c0 -2.296112 1.8613892 -4.157486 4.1574707 -4.157486l0 0c1.1026611 0 2.1601562 0.4380188 2.9398193 1.2177124c0.7796631 0.77967834 1.2177124 1.837143 1.2177124 2.9397736l0 0c0 2.296112 -1.8613892 4.157486 -4.1575317 4.157486l0 0c-2.2960815 0 -4.1574707 -1.8613739 -4.1574707 -4.157486z" fill-rule="evenodd"/><path fill="#000000" fill-opacity="0.0" d="m690.6063 140.83727l54.11023 0" fill-rule="evenodd"/><path stroke="#741b47" stroke-width="8.0" stroke-linejoin="round" stroke-linecap="butt" d="m690.6063 140.83727l54.11023 0" fill-rule="evenodd"/><path fill="#ff9900" d="m688.1076 140.13649l0 0c0 -2.2961273 1.8613892 -4.157486 4.1574707 -4.157486l0 0c1.1026611 0 2.1600952 0.4380188 2.9398193 1.2176971c0.7796631 0.77967834 1.2176514 1.837143 1.2176514 2.9397888l0 0c0 2.296112 -1.8613281 4.1574707 -4.1574707 4.1574707l0 0c-2.2960815 0 -4.1574707 -1.8613586 -4.1574707 -4.1574707z" fill-rule="evenodd"/><path stroke="#783f04" stroke-width="3.0" stroke-linejoin="round" stroke-linecap="butt" d="m688.1076 140.13649l0 0c0 -2.2961273 1.8613892 -4.157486 4.1574707 -4.157486l0 0c1.1026611 0 2.1600952 0.4380188 2.9398193 1.2176971c0.7796631 0.77967834 1.2176514 1.837143 1.2176514 2.9397888l0 0c0 2.296112 -1.8613281 4.1574707 -4.1574707 4.1574707l0 0c-2.2960815 0 -4.1574707 -1.8613586 -4.1574707 -4.1574707z" fill-rule="evenodd"/><path fill="#ff9900" d="m739.1155 140.13649l0 0c0 -2.2961273 1.8613892 -4.157486 4.1574707 -4.157486l0 0c1.1026611 0 2.1600952 0.4380188 2.9398193 1.2176971c0.7796631 0.77967834 1.2176514 1.837143 1.2176514 2.9397888l0 0c0 2.296112 -1.8613281 4.1574707 -4.1574707 4.1574707l0 0c-2.2960815 0 -4.1574707 -1.8613586 -4.1574707 -4.1574707z" fill-rule="evenodd"/><path stroke="#783f04" stroke-width="3.0" stroke-linejoin="round" stroke-linecap="butt" d="m739.1155 140.13649l0 0c0 -2.2961273 1.8613892 -4.157486 4.1574707 -4.157486l0 0c1.1026611 0 2.1600952 0.4380188 2.9398193 1.2176971c0.7796631 0.77967834 1.2176514 1.837143 1.2176514 2.9397888l0 0c0 2.296112 -1.8613281 4.1574707 -4.1574707 4.1574707l0 0c-2.2960815 0 -4.1574707 -1.8613586 -4.1574707 -4.1574707z" fill-rule="evenodd"/><path fill="#000000" fill-opacity="0.0" d="m691.5525 207.19817l30.11023 0" fill-rule="evenodd"/><path stroke="#b45f06" stroke-width="8.0" stroke-linejoin="round" stroke-linecap="butt" d="m691.5525 207.19817l30.11023 0" fill-rule="evenodd"/><path fill="#ff9900" d="m719.2139 206.11548l0 0c0 -2.296112 1.8613281 -4.1574707 4.1574707 -4.1574707l0 0c1.1026001 0 2.1600952 0.4380188 2.9397583 1.2176971c0.7797241 0.77967834 1.2177124 1.837143 1.2177124 2.9397736l0 0c0 2.2961273 -1.8613892 4.157486 -4.1574707 4.157486l0 0c-2.2961426 0 -4.1574707 -1.8613586 -4.1574707 -4.157486z" fill-rule="evenodd"/><path stroke="#783f04" stroke-width="3.0" stroke-linejoin="round" stroke-linecap="butt" d="m719.2139 206.11548l0 0c0 -2.296112 1.8613281 -4.1574707 4.1574707 -4.1574707l0 0c1.1026001 0 2.1600952 0.4380188 2.9397583 1.2176971c0.7797241 0.77967834 1.2177124 1.837143 1.2177124 2.9397736l0 0c0 2.2961273 -1.8613892 4.157486 -4.1574707 4.157486l0 0c-2.2961426 0 -4.1574707 -1.8613586 -4.1574707 -4.157486z" fill-rule="evenodd"/><path fill="#ff9900" d="m688.7126 206.11548l0 0c0 -2.296112 1.8613892 -4.1574707 4.1574707 -4.1574707l0 0c1.1026611 0 2.1601562 0.4380188 2.9398193 1.2176971c0.7796631 0.77967834 1.2177124 1.837143 1.2177124 2.9397736l0 0c0 2.2961273 -1.8613892 4.157486 -4.1575317 4.157486l0 0c-2.2960815 0 -4.1574707 -1.8613586 -4.1574707 -4.157486z" fill-rule="evenodd"/><path stroke="#783f04" stroke-width="3.0" stroke-linejoin="round" stroke-linecap="butt" d="m688.7126 206.11548l0 0c0 -2.296112 1.8613892 -4.1574707 4.1574707 -4.1574707l0 0c1.1026611 0 2.1601562 0.4380188 2.9398193 1.2176971c0.7796631 0.77967834 1.2177124 1.837143 1.2177124 2.9397736l0 0c0 2.2961273 -1.8613892 4.157486 -4.1575317 4.157486l0 0c-2.2960815 0 -4.1574707 -1.8613586 -4.1574707 -4.157486z" fill-rule="evenodd"/></g></svg>